<?xml version="1.0" encoding="UTF-8"?><svg id="Layer_2" xmlns="http://www.w3.org/2000/svg" viewBox="0 0 157.31 169.32"><defs><style>.cls-1{fill:#fff;}</style></defs><g id="Objects"><path class="cls-1" d="m76.24,169.32c-.44-.31-.85-.67-1.32-.94-9.43-5.41-18.88-10.8-28.3-16.24-.92-.53-1.58-.49-2.45.05-1.66,1.04-3.4,1.97-5.11,2.93-1.81,1.02-3.66,1.09-5.47.06-10.32-5.88-20.64-11.77-30.94-17.7-1.78-1.03-2.65-2.68-2.65-4.78C.03,121.08.02,109.44,0,97.8c0-2.39.98-4.16,3.06-5.33,1.27-.71,2.49-1.54,3.82-2.14,1.42-.65,1.88-1.57,1.86-3.14-.08-10.33.13-20.66-.15-30.98-.12-4.49,1.35-7.22,5.39-9.37,9.15-4.87,18.04-10.23,27.07-15.34,1.02-.57,1.42-1.19,1.36-2.35-.1-1.91-.02-3.83-.04-5.74-.03-2.32.92-4.09,2.94-5.24C55.9,12.16,66.49,6.15,77.08.13c.04-.02.05-.09.08-.13,1.01,0,2.02,0,3.02,0,10.26,5.86,20.5,11.78,30.81,17.54,2.84,1.59,4.25,3.67,3.98,6.94-.14,1.65.05,3.33-.05,4.98-.07,1.04.41,1.5,1.23,1.97,9.67,5.5,19.3,11.08,28.99,16.54,2.42,1.36,3.53,3.21,3.52,5.97-.05,11.23,0,22.46-.05,33.7,0,1.23.37,1.92,1.45,2.47,1.57.79,3.08,1.7,4.59,2.62,1.77,1.08,2.67,2.7,2.67,4.78,0,11.79,0,23.57-.01,35.36,0,2.1-.98,3.68-2.78,4.7-10.17,5.84-20.36,11.66-30.54,17.49-1.96,1.12-3.92,1.13-5.88,0-1.79-1.03-3.57-2.08-5.39-3.04-.41-.22-1.11-.33-1.47-.13-9.98,5.67-19.93,11.39-29.88,17.11-.12.07-.19.22-.28.33h-4.84Zm38.71-126.07c0,4.96-.07,9.59.03,14.22.06,2.83-1.06,4.77-3.51,6.16-10.03,5.69-20.03,11.44-30.04,17.16-1.76,1-3.58,1.11-5.33.11-10.33-5.88-20.64-11.79-30.94-17.71-1.91-1.1-2.81-2.81-2.79-5.02.01-1.31.01-2.62.01-3.93,0-3.56,0-7.13,0-10.86-.45.19-.72.28-.97.42-7,3.99-14,7.97-20.96,12.03-.5.29-.9,1.18-.91,1.79-.06,7.96-.04,15.92-.03,23.88,0,.42.07.85.11,1.44.61-.32,1.05-.53,1.48-.78,4.07-2.32,8.14-4.63,12.2-6.97,1.91-1.1,3.83-1.2,5.74-.11,10.15,5.78,20.29,11.6,30.43,17.39,2.13,1.22,3.12,3.03,3.11,5.47-.02,11.54-.02,23.08-.02,34.62,0,2.26-.95,3.97-2.93,5.09-2.1,1.2-4.2,2.39-6.3,3.6-2.26,1.3-4.53,2.6-6.88,3.95.27.23.41.38.57.47,6.9,3.95,13.8,7.92,20.74,11.81.47.27,1.37.2,1.87-.08,3.92-2.17,7.8-4.42,11.69-6.65,3.13-1.79,6.25-3.6,9.55-5.5-.7-.42-1.2-.73-1.72-1.03-3.72-2.13-7.41-4.29-11.16-6.36-2.27-1.25-3.3-3.08-3.29-5.65.03-11.19.06-22.37-.03-33.56-.02-3.06,1.13-5.11,3.8-6.61,9.83-5.53,19.61-11.15,29.39-16.77,2.12-1.22,4.15-1.24,6.28,0,4.13,2.41,8.3,4.75,12.46,7.12.32.18.68.28,1.03.42.07-.24.12-.34.12-.43,0-8.36.03-16.73-.03-25.09,0-.53-.56-1.26-1.06-1.56-3.94-2.33-7.93-4.59-11.91-6.86-3.18-1.82-6.37-3.63-9.85-5.62Zm-19.36,63.48c0,7.61-.02,14.9.05,22.19,0,.47.59,1.11,1.07,1.39,5.87,3.4,11.77,6.76,17.67,10.12.33.19.69.31,1.08.47.06-.28.12-.42.12-.56,0-7.09.03-14.19-.03-21.28,0-.49-.52-1.16-.99-1.43-3.02-1.81-6.09-3.54-9.14-5.29-3.18-1.82-6.36-3.63-9.82-5.61Zm-84.59.1c-.08.4-.14.55-.14.69,0,7.05.02,14.11-.03,21.16,0,.94.46,1.31,1.16,1.7,5.83,3.3,11.64,6.63,17.45,9.95.4.23.83.41,1.4.68,0-7.53.02-14.78-.04-22.04,0-.45-.51-1.06-.95-1.31-3.2-1.9-6.45-3.74-9.68-5.59-3-1.72-6.01-3.43-9.18-5.24Zm115.46,34.16c.47-.2.7-.27.9-.39,6.08-3.46,12.17-6.91,18.21-10.44.46-.27.84-1.1.84-1.67.06-6.85.04-13.7.03-20.55,0-.31-.09-.63-.16-1.11-6.49,3.72-12.82,7.33-19.13,10.98-.35.2-.67.78-.67,1.18-.04,7.25-.03,14.5-.03,21.98ZM53.24,32.39c0,7.59-.02,14.84.04,22.09,0,.49.54,1.15,1.01,1.42,5.87,3.42,11.78,6.78,17.68,10.14.33.19.69.32,1.09.5.07-.25.14-.39.14-.52.01-7.1.04-14.2-.01-21.3,0-.5-.51-1.17-.97-1.45-2.45-1.49-4.96-2.88-7.45-4.31-3.75-2.14-7.5-4.27-11.53-6.57Zm50.85.06c-.57.28-.84.4-1.1.55-5.9,3.37-11.79,6.76-17.71,10.08-.93.52-1.22,1.11-1.22,2.13.05,6.65.03,13.29.04,19.94,0,.43.05.86.08,1.33.26-.05.42-.05.54-.11,6.21-3.54,12.42-7.07,18.59-10.68.42-.25.73-1.04.74-1.58.06-4.48.04-8.96.04-13.44,0-2.66,0-5.32,0-8.22Zm-62.37,108.42c.35-.07.51-.06.63-.13,6.21-3.54,12.44-7.07,18.61-10.68.44-.26.74-1.13.74-1.72.05-6.75.03-13.5.03-20.26,0-.37-.07-.74-.11-1.25-.64.35-1.13.59-1.6.86-5.68,3.25-11.35,6.53-17.06,9.74-.9.51-1.25,1.07-1.24,2.12.05,6.3.01,12.6.01,18.9,0,.78,0,1.57,0,2.42Zm59.5-43.53c.36.26.54.42.74.53,6.07,3.47,12.13,6.97,18.24,10.38.47.26,1.37.18,1.87-.1,5.93-3.32,11.82-6.71,17.71-10.08.32-.18.61-.43.92-.65-.14-.18-.19-.28-.26-.33-6.2-3.55-12.4-7.12-18.63-10.61-.44-.24-1.27-.15-1.75.11-3.14,1.71-6.23,3.5-9.33,5.28-3.13,1.79-6.25,3.59-9.51,5.47ZM58.83,22.95c.35.27.49.4.65.5,6.12,3.49,12.23,7,18.38,10.44.44.25,1.28.19,1.74-.07,6.01-3.37,11.99-6.8,17.98-10.22.27-.15.5-.38.86-.67-6.48-3.71-12.8-7.34-19.16-10.91-.39-.22-1.17-.05-1.63.2-1.86.99-3.67,2.09-5.51,3.14-4.36,2.49-8.73,4.98-13.3,7.59ZM16.45,97.34c.38.27.53.41.7.5,6.07,3.48,12.13,6.97,18.24,10.38.48.27,1.38.23,1.87-.05,5.97-3.34,11.9-6.76,17.84-10.16.29-.17.56-.36.88-.58-.17-.18-.25-.32-.37-.38-6.2-3.55-12.4-7.11-18.63-10.61-.4-.23-1.17-.13-1.62.1-2.13,1.13-4.22,2.35-6.32,3.55-4.14,2.37-8.27,4.75-12.6,7.24Z"/></g></svg>