<?xml version="1.0" encoding="UTF-8"?>
<svg id="Layer_2" data-name="Layer 2" xmlns="http://www.w3.org/2000/svg" xmlns:xlink="http://www.w3.org/1999/xlink" viewBox="0 0 296.17 184.91">
  <defs>
    <style>
      .cls-1 {
        fill: none;
      }

      .cls-2 {
        fill: #f99d1c;
      }

      .cls-3 {
        fill: #fff;
      }

      .cls-4 {
        fill: #f37021;
      }

      .cls-5 {
        clip-path: url(#clippath);
      }
    </style>
    <clipPath id="clippath">
      <rect class="cls-1" width="296.17" height="184.91"/>
    </clipPath>
  </defs>
  <g id="Layer_1-2" data-name="Layer 1">
    <g class="cls-5">
      <path class="cls-4" d="M46.35,83.15v-15.72c0-2.6-.24-4.37-.71-5.29-.48-.93-1.14-1.71-1.99-2.36-.85-.65-2.3-1.56-4.34-2.72l-9.29-5.03c-1.23-.75-2.11-1.37-2.65-1.85-.55-.48-.82-1.4-.82-2.78v-12.23c0-2.94,1.39-4.42,4.19-4.42h1.53c2.86,0,4.29,1.47,4.29,4.42v6.47h9.8v-7.19c0-8.43-3.91-12.64-11.74-12.64h-6.13c-7.83,0-11.74,4.21-11.74,12.64v15.1c0,1.92.2,3.48.61,4.68.41,1.2,1.07,2.17,1.99,2.93.92.75,2.4,1.68,4.44,2.78l9.29,5.24c1.22.75,2.11,1.37,2.65,1.85.54.48.82,1.4.82,2.77v12.54c0,2.88-1.29,4.32-3.88,4.32h-1.74c-2.93,0-4.39-1.44-4.39-4.32v-4.01h-9.8v3.7c0,9.04,3.91,13.56,11.74,13.56h6.02c7.89,0,11.84-4.14,11.84-12.43M74.42,55.61c0,2.88-1.29,4.32-3.88,4.32h-6.23v-29.18h5.72c2.92,0,4.39,1.44,4.39,4.32v20.55ZM84.22,56.33v-21.89c0-8.43-3.95-12.64-11.84-12.64h-17.87v73.78h9.8v-26.72h8.17c7.83,0,11.74-4.18,11.74-12.54M129.52,95.58h.07l-12.8-80.54h-18.4l-12.76,80.25-.09.29h11.48l.05-.14h0c2.35-7.08,4.68-14.08,7.04-21.17h-12.69c7.71-14.07,15.37-28.05,23.03-42.02.03.01.05.02.08.03-1.74,10.66-3.49,21.32-5.24,32.06h11.94c-.13.85-.24,1.65-.37,2.45-.41,2.65-.82,5.3-1.24,7.95-.7,4.47-1.4,8.93-2.1,13.4-.36,2.31-.73,4.62-1.08,6.93-.01.07-.03.13-.05.18l-.05.32h13.2ZM156.07,52.01c0,3.56-1.46,5.34-4.39,5.34h-6.43v-26.61h6.43c2.93,0,4.39,1.78,4.39,5.34v15.93ZM166.89,95.58l-6.84-30.72c3.88-1.71,5.82-5.79,5.82-12.23v-18.19c0-8.43-3.74-12.64-11.23-12.64h-19.19v73.78h9.8v-29.8h5.92l6.43,29.8h9.29ZM174.04,95.58h9.8V21.8h-9.8v73.78ZM193.23,58.49l10.31-36.68h-8.99l-10.21,37.1v.62l12.25,36.07h9.8l-13.17-37.1Z"/>
      <path class="cls-2" d="M268.07,100.3c-.15-1.46-.92-2.45-1.99-2.91-.46-.23-1-.31-1.53-.31-.99,0-1.99.31-3.06.92-1.38.77-2.91,1.99-4.29,3.6-2.53,2.99-4.67,7.04-4.67,11.33,0,2.22.54,4.52,1.99,6.66,1.68,2.6,4.44,3.6,7.73,3.6,12.56,0,33.15-14.85,33.31-14.93.38-.31.61-.69.61-1.07,0-.92-.84-1.84-1.84-1.84-.31,0-.61.08-.92.31-.08.08-21.21,16-31.78,16-2.14,0-3.83-.69-4.82-2.22-.92-1.38-1.23-3.52-1.23-5.36,0-.54.08-1.07.08-1.53,2.14-.84,12.48-4.98,12.48-11.41,0-.31-.08-.54-.08-.84M256.74,108.57c3.52-4.59,4.98-7.43,6.51-7.66.15,0,.23.08.23.23,0,.69-1.84,3.22-6.74,7.43M206.74,161.48c-3.98,10.57-8.73,18.99-10.18,20.29v-.23c0-1.23.46-3.52,1.3-6.59,1.23-4.59,3.37-10.57,6.13-16.92,2.45-5.51,7.12-15.93,10.34-21.44-2.22,7.2-5.21,18.61-7.58,24.89M211.49,104.36c-2.83,4.06-7.2,8.88-13.4,12.02,2.37-2.83,10.03-10.11,13.4-12.02M215.01,106.96l3.06,1.15s.15-.69.15-1.68c0-1.22-.23-2.83-1.22-4.06,2.99-3.14,5.51-5.36,6.58-5.36h.23c.08,0,.15.23.15.61,0,.77-.23,2.3-.69,4.98-.69,3.75-1.68,8.27-2.99,13.25-.77,2.99-1.92,4.9-2.83,8.12-5.9,8.12-13.63,23.28-17.54,32.08-2.83,6.51-4.98,12.48-6.2,17.23-.31,1.07-1,3.75-1,6.28,0,2.37.61,4.59,2.68,5.28.15.08.38.08.54.08,4.44,0,11.56-19.07,12.48-21.67,3.6-9.49,9.19-25.65,12.25-36.37,4.82-10.64,19.37-19.99,36.14-20.6.69-.69,1.23-1.38,1.23-1.91,0-.46-.31-.84-1.23-1.15-.31-.08-.61-.08-.99-.08-6.43,0-26.57,7.43-33.23,16.31.15-.61,1.07-3.52,1.22-4.06,1.3-5.05,1.91-7.96,2.53-11.79.31-1.68.46-3.14.46-4.29,0-3.06-.92-4.67-2.45-5.21-.31-.08-.54-.15-.84-.15-2.45,0-5.74,2.91-9.49,6.74-.54-.15-1.15-.15-1.84-.15s-1.46,0-2.37.15c-4.9.84-12.71,8.35-16.23,13.63-.84,1.38-1.53,2.6-1.76,3.6-.15.46-.23.92-.23,1.38,0,1,.46,1.84,1.53,2.37.46.23.99.38,1.61.38.54,0,1.15-.08,1.84-.31,3.67-1.15,9.34-7.35,14.78-13.32,1.15-1.22,2.3-2.45,3.37-3.6.31.54.38,1.15.38,1.53s-.08.61-.08.61M156.89,97.46v-.15c0-1.76-1.38-2.76-2.76-2.76-1.15,0-2.3.69-2.68,2.22l-7.43,29.71v.31c0,.99.92,1.45,1.99,1.45,1.22,0,2.68-.54,3.14-1.53.15-1.61,11.41-17.38,15.32-17.38.46,0,.84.31,1.07.99,3.52,7.81,8.42,10.49,13.63,10.49,8.35,0,17.54-6.89,23.66-11.72.46-.23.69-.61.69-1,0-.69-.69-1.45-1.45-1.45-.31,0-.69.08-1,.46-8.19,5.97-15.39,11.1-21.44,11.1-4.67,0-8.73-2.99-12.1-10.72-.99-2.14-2.3-3.06-3.83-3.06-3.37,0-7.73,4.82-12.02,10.41l5.21-17.38ZM102.07,104.81c-4.82,6.43-9.42,10.11-10.87,10.11-.31,0-.46-.15-.46-.38,0-1.76,6.43-10.11,10.11-10.11.46,0,.84.08,1.22.38M104.98,106.81l.23.69c.31.15.61.23.92.23.84,0,1.76-.46,2.45-1.46v-.31c0-.46,0-1.38-.31-2.3,1.76-1.68,2.91-2.76,2.91-2.76v.08c0,.61-1,3.29-1.46,6.2-.54,2.14-.77,3.91-.77,5.44,0,5.74,3.45,7.81,8.35,7.81,11.94,0,32.47-12.02,33.38-13.32.38-.46.54-.92.54-1.38,0-.84-.46-1.46-1.15-1.46-.46,0-.99.31-1.46,1.22-2.68,3.37-20.75,13.63-30.47,13.63-3.75,0-6.28-1.45-6.28-5.44,0-1.53.38-3.44,1.22-5.74,1.3-3.29,1.92-5.9,1.92-7.73,0-1.69-.54-2.68-1.53-2.83-.15-.08-.38-.15-.61-.15-1.45,0-4.13,1.91-6.43,3.83-1.15-1.15-2.91-1.91-5.28-1.91-1.22,0-2.6.15-4.14.61-5.9,1.76-10.64,7.5-12.86,12.41-.76,1.53-1.22,3.06-1.38,4.29-.08.38-.08.77-.08,1.15,0,1.07.23,1.99.84,2.76.54.61,1.15,1.07,1.99,1.22.15,0,.31.08.38.08,3.29,0,10.18-6.43,16.23-12.17,1.3-1.23,1.76-1.61,2.83-2.68M72.21,45.93c-.54-.54-1.15-.77-1.76-.77-2.37,0-5.13,3.22-6.13,4.75-6.51,9.34-15.54,32.62-22.28,50.54-.38.92-2.45,2.83-2.91,4.21-.15.54-.23,1.07-.23,1.61,0,.92.23,1.76.23,2.53,0,.31-.08.54-.15.84-3.14,9.72-4.67,16.54-5.21,22.97v.38c0,.92.77,1.69,1.61,1.69.54,0,1.15-.46,1.38-1.45,1.53-5.97,21.36-29.86,24.89-29.86.23,0,.38.08.46.23v.31c0,1.84-1,6.05-1,9.95,0,2.99.54,5.74,2.6,7.2,1.07.69,2.37,1.07,3.83,1.07,2.45,0,5.44-.92,8.58-2.45,5.59-2.68,11.87-7.35,16.92-12.1.31-.38.38-.77.38-1.15,0-.84-.69-1.53-1.46-1.53-.38,0-.69.15-.99.46-4.82,4.52-10.87,8.96-16.23,11.56-3.14,1.53-6.28,3.06-8.27,3.06-.61,0-1.07-.15-1.46-.38-.92-.69-1.22-2.14-1.22-3.98,0-3.91,1.38-9.42,1.38-11.95,0-.46,0-.84-.15-1.07-.84-1.61-2.07-2.3-3.44-2.3-7.2,0-19.76,18.22-21.9,21.44,1.45-5.36,2.99-10.03,4.9-15.85l.38-1.07c.92,0,28.33-41.58,28.33-55.44,0-1.53-.31-2.68-1.07-3.44M46.94,96.24c2.83-7.58,14.32-38.44,19.45-45.56,1.3-1.84,2.6-2.53,2.91-2.6.23.31.38.76.38,1.45,0,7.2-15.01,34.76-22.74,46.71M14.32,102.67c0,1.53,2.3,2.37,4.06,2.37.84,0,1.61-.23,1.99-.54.08-.08,1.91-3.45,1.91-6.43,0-1.53-.54-2.99-2.07-3.75-.54-.15-1.07-.31-1.61-.31h-.77C9.11,94.02,0,105.43,0,114.69c0,1.61.31,3.06.84,4.44.84,2.07,2.45,3.75,4.98,4.59,1.07.38,2.3.54,3.68.54,1.61,0,3.52-.23,5.67-.84,6.43-1.68,15.54-6.36,27.87-15.62.54-.38.69-.76.69-1.15,0-.69-.84-1.22-1.84-1.22-.46,0-1,.15-1.45.46-11.95,8.96-19.3,13.32-25.42,14.93-2.3.61-4.67,1.07-6.51,1.07-.77,0-1.53-.08-2.07-.31-1.61-.46-2.6-1.53-3.14-2.83-.31-.69-.38-1.38-.38-2.14,0-6.97,10.11-17.31,14.24-19.22.31,0,.38.15.38.38,0,1.15-2.68,4.06-3.22,4.9"/>
      <path class="cls-3" d="M92.32,9.84c.52.28,1.33.48,2.23.48,1.98,0,2.99-.95,2.99-2.23-.01-1.02-.56-1.68-1.88-2.13-.85-.3-1.12-.47-1.12-.79,0-.35.3-.57.82-.57.59,0,1.19.23,1.5.4l.38-1.48c-.42-.21-1.14-.4-1.95-.4-1.71,0-2.81.98-2.81,2.26-.01.82.54,1.6,1.96,2.08.8.27,1.02.44,1.02.79s-.27.58-.92.58-1.45-.28-1.85-.52l-.38,1.54ZM90.83.64c-.18,1.24-.55,2.61-.97,3.81l1.3-.11c.64-1.06,1.26-2.44,1.69-3.83l-2.02.13ZM84.86,5.95c.06-.58.42-1.4,1.33-1.4.99,0,1.22.88,1.22,1.4h-2.54ZM89.32,7.41c.03-.15.07-.48.07-.85,0-1.71-.85-3.45-3.08-3.45-2.4,0-3.49,1.93-3.49,3.69,0,2.16,1.34,3.52,3.69,3.52.93,0,1.79-.14,2.5-.42l-.28-1.46c-.58.18-1.17.28-1.91.28-1,0-1.88-.42-1.95-1.31h4.45ZM79.35,7.1c0,.18-.01.34-.06.49-.13.61-.62,1.03-1.24,1.03-.89,0-1.47-.74-1.47-1.91,0-1.09.51-1.96,1.48-1.96.66,0,1.13.48,1.26,1.06.01.11.03.27.03.38v.9ZM79.35.16v3.74h-.03c-.31-.48-.97-.78-1.82-.78-1.65,0-3.11,1.34-3.09,3.67,0,2.15,1.31,3.54,2.95,3.54.89,0,1.72-.4,2.16-1.17h.03l.1,1.02h1.91c-.03-.47-.06-1.29-.06-2.06V.16h-2.15ZM66.53,10.18h2.15v-3.98c0-.2.03-.41.08-.54.14-.4.49-.81,1.09-.81.78,0,1.09.61,1.09,1.5v3.83h2.15v-4.1c0-2.03-1.06-2.97-2.47-2.97-1.14,0-1.85.66-2.13,1.1h-.04l-.1-.95h-1.86c.03.61.06,1.34.06,2.2v4.7ZM64.81,3.28h-2.16v4.11c0,.17-.01.34-.07.47-.14.34-.48.75-1.07.75-.75,0-1.07-.61-1.07-1.61v-3.71h-2.16v4.05c0,2.13,1.03,3.01,2.43,3.01,1.24,0,1.89-.71,2.16-1.13h.04l.1.97h1.86c-.03-.58-.06-1.31-.06-2.22V3.28ZM55.88,10.18v-5.32h1.37v-1.58h-1.38v-.35c0-.68.3-1.23,1-1.23.28,0,.51.04.69.1l.08-1.65c-.3-.09-.66-.14-1.14-.14-.62,0-1.37.18-1.91.69-.62.57-.88,1.48-.88,2.32v.27h-.9v1.58h.9v5.32h2.16ZM50.69.27c-.69,0-1.14.47-1.13,1.09-.01.59.44,1.07,1.12,1.07s1.16-.48,1.16-1.07c-.01-.62-.45-1.09-1.14-1.09M51.76,3.28h-2.15v6.9h2.15V3.28ZM43.09,9.84c.52.28,1.33.48,2.23.48,1.98,0,2.99-.95,2.99-2.23-.01-1.02-.57-1.68-1.88-2.13-.85-.3-1.12-.47-1.12-.79,0-.35.3-.57.82-.57.59,0,1.19.23,1.5.4l.38-1.48c-.42-.21-1.14-.4-1.95-.4-1.71,0-2.81.98-2.81,2.26-.01.82.54,1.6,1.96,2.08.81.27,1.02.44,1.02.79s-.27.58-.92.58-1.45-.28-1.85-.52l-.38,1.54ZM39.7,7.67c0,.13-.01.26-.04.37-.14.44-.58.79-1.12.79-.48,0-.85-.27-.85-.82,0-.83.88-1.1,2.01-1.09v.75ZM41.89,10.18c-.07-.38-.1-1.02-.1-1.68v-2.4c0-1.62-.74-2.98-3.04-2.98-1.26,0-2.2.34-2.68.61l.4,1.38c.45-.28,1.2-.52,1.91-.52,1.06,0,1.26.52,1.26.89v.1c-2.44-.01-4.05.85-4.05,2.64,0,1.1.83,2.12,2.23,2.12.82,0,1.53-.3,1.98-.85h.04l.13.69h1.93ZM23.88,10.18h2.09v-4.02c0-.17.01-.37.08-.54.13-.35.45-.78,1-.78.68,0,.99.59.99,1.47v3.87h2.09v-4.04c0-.17.03-.4.08-.55.14-.41.5-.75.99-.75.69,0,1.02.58,1.02,1.58v3.76h2.09v-4.07c0-2.06-1-2.99-2.33-2.99-.51,0-.93.11-1.31.34-.32.2-.64.48-.89.83h-.03c-.3-.72-1-1.17-1.89-1.17-1.19,0-1.79.65-2.09,1.09h-.04l-.1-.93h-1.81c.03.61.06,1.34.06,2.2v4.7Z"/>
      <path class="cls-3" d="M280.45,149.44h4.33v-11.83h4.69v-3.79h-13.7v3.79h4.69v11.83ZM267.19,149.44h4.35v-15.62h-4.35v15.62ZM245.49,149.44h4.24v-8.93l3.97,6.07h.09l3.99-6.12v8.97h4.31v-15.62h-4.58l-3.73,6.05-3.73-6.05h-4.57v15.62ZM223.89,149.44h4.24v-8.93l3.97,6.07h.09l3.99-6.12v8.97h4.31v-15.62h-4.58l-3.73,6.05-3.73-6.05h-4.58v15.62ZM211.77,149.73c4.44,0,7.32-2.21,7.32-7.25v-8.66h-4.4v8.79c0,2.19-1.14,3.21-2.88,3.21s-2.88-1.07-2.88-3.33v-8.68h-4.4v8.77c0,4.89,2.79,7.14,7.23,7.14M194.09,149.71c3.79,0,6.32-1.9,6.32-5.09v-.05c0-2.92-2.23-4.08-5.83-4.87-2.17-.49-2.7-.8-2.7-1.52v-.04c0-.56.51-1,1.56-1,1.38,0,2.95.53,4.38,1.54l2.17-3.06c-1.7-1.36-3.77-2.08-6.43-2.08-3.75,0-6.05,2.1-6.05,5v.04c0,3.22,2.57,4.15,5.89,4.91,2.12.49,2.63.85,2.63,1.49v.05c0,.67-.62,1.07-1.79,1.07-1.81,0-3.53-.65-5.07-1.88l-2.41,2.88c1.92,1.72,4.55,2.59,7.32,2.59M160.32,149.44h4.33v-5.94h5.56v5.94h4.33v-15.62h-4.33v5.85h-5.56v-5.85h-4.33v15.62ZM147.17,149.44h4.33v-11.83h4.69v-3.79h-13.7v3.79h4.69v11.83ZM131.24,149.73c4.44,0,7.32-2.21,7.32-7.25v-8.66h-4.4v8.79c0,2.19-1.14,3.21-2.88,3.21s-2.88-1.07-2.88-3.33v-8.68h-4.4v8.77c0,4.89,2.79,7.14,7.23,7.14M111.33,145.84c-2.36,0-3.99-1.96-3.99-4.22v-.04c0-2.25,1.58-4.17,3.95-4.17s4.02,1.96,4.02,4.22v.04c0,2.25-1.58,4.17-3.97,4.17M111.28,149.75c4.82,0,8.44-3.64,8.44-8.12v-.04c0-4.49-3.57-8.08-8.39-8.08s-8.44,3.64-8.44,8.12v.04c0,4.49,3.57,8.08,8.39,8.08M91.02,149.44h4.35v-5.92l5.94-9.71h-4.84l-3.24,5.69-3.21-5.69h-4.93l5.94,9.78v5.85ZM65.22,145.84c-2.37,0-4-1.96-4-4.22v-.04c0-2.25,1.58-4.17,3.95-4.17s4.02,1.96,4.02,4.22v.04c0,2.25-1.58,4.17-3.97,4.17M65.17,149.75c4.82,0,8.44-3.64,8.44-8.12v-.04c0-4.49-3.57-8.08-8.39-8.08s-8.44,3.64-8.44,8.12v.04c0,4.49,3.57,8.08,8.39,8.08M46.76,149.75c3.46,0,5.45-1.49,6.92-3.53l-3.26-2.32c-.94,1.14-1.9,1.9-3.53,1.9-2.19,0-3.73-1.83-3.73-4.17v-.04c0-2.28,1.54-4.13,3.73-4.13,1.49,0,2.52.71,3.42,1.83l3.26-2.52c-1.38-1.92-3.44-3.26-6.63-3.26-4.73,0-8.24,3.57-8.24,8.12v.04c0,4.67,3.59,8.08,8.06,8.08M22.23,149.44h12.68v-3.68h-8.39v-2.48h7.5v-3.42h-7.5v-2.37h8.28v-3.68h-12.57v15.62Z"/>
    </g>
  </g>
</svg>