<?xml version="1.0" encoding="UTF-8"?><svg id="Layer_2" xmlns="http://www.w3.org/2000/svg" viewBox="0 0 148.48 130.82"><defs><style>.cls-1{fill:#fff;}</style></defs><g id="Objects"><g><path class="cls-1" d="m62.96,73.04c.86-1.13,1.72-5.26,3.22-7.96.53-.96.96-1.55,1.22-2.46-.93-1.7-5.37-7.2-5.6-8.64-.32-2.02,4.45-5.87,6.34-7.78,1.17-1.18,2.35-3.17,4.76-1.91l6.23,4.35c2.24,1.6,2.49-.03,7.54-1.92,5.38-2.01,4.19.08,5.67-8.62.35-2.07.49-3.81,3.09-3.96,2.32-.13,5.05,0,7.41,0,2.65,0,4.22-.39,4.98,2.09.41,1.35.84,4.54,1.06,6.06.48,3.26.4,2.99,3.27,3.88,8.33,2.61,6.51,4.74,10,2.04,1.58-1.22,2.78-1.8,4.24-2.91,3.61-2.75,3.9-1.05,8.52,3.53.93.92,3.01,2.64,3.5,3.67.89,1.86-.59,3.56-1.53,4.72-1.19,1.46-1.71,2.55-2.94,4.22-1.28,1.73-.91,1.24.87,4.91.74,1.52,1.53,3.53,1.95,5.19.6,2.4,1.13,1.82,4.71,2.46,7.92,1.4,6.94.86,6.94,7.47,0,1.28.16,6.1-.09,6.97-.72,2.58-8.98,2.12-10.8,3.41-.61.43-1.78,4.43-2.13,5.32-2.05,5.21-3.8,3.98.47,9.25,2.48,3.05,3.75,4.94,1.68,6.91l-5.42,5.43c-1.08,1.12-2.38,3.06-4.62,1.75-1.37-.81-2.93-2.06-4.21-2.94-6.31-4.32-2.19-1.07-12.3,1.45-2.73.68-1.84,2.15-2.99,7.87-.98,4.85-1.29,3.82-10.6,3.86-5.47.02-4.63-.84-5.9-8.19-.86-4.99-.27-1.93-8.51-6.09-2.98-1.5-1.8-2.1-8.75,2.95-3.61,2.62-4.24,1.28-8.54-3.11-5.27-5.38-5.75-3.77.78-12.95.64-.9,1.02-1.03.54-2.06-1.48-3.24-1.74-2.63-3.28-7.6-.98-3.17-1.19-2.09-4.28-2.81-1.52-.35-4.89-.66-6.2-1.27-1.84-.84-1.3-3.39-1.3-5.87,0-1.59-.2-5.82.06-7.11.43-2.12,2.72-1.87,4.82-2.34,1.84-.41,4.47-.69,6.1-1.27m37.9,28.26c10.27,0,18.1-8.82,18.38-19.03.2-7.06-4.93-14.15-11.05-16.99-19.23-8.92-36.04,15.75-21.47,30.32,4.15,4.15,8.02,5.7,14.13,5.7"/><path class="cls-1" d="m45.75,33.56l5.12,4.91c2.37.09,4.52-1.37,7.14-.92,1.1,1.07,1.75,3.36,2.39,4.97,1.07,2.68,1.67,2.96-.83,4.53-5.27,3.3-3.84,2.33-3.93,6.67-.02,1.07-.1,2.24-.05,3.48,1.1.97,5.29,3.37,5.61,4.23.24.64-2.03,6.38-2.53,7.31-1.28,2.37-5.78-.75-7.7-.23-.78.21-2.64,3.21-5.23,4.88-.26,2.88,1.39,5.02.74,7.52-.28.54-6.83,3.65-8.27,2.97-.71-.51-3.24-4.7-3.85-5.58-1.5-.06-2.46.29-3.76.25-5.47-.15-2.71-1.73-6.65,4.3-1.43,2.19-3.48.72-5.3-.02-1.46-.59-4.43-1.18-4.19-3.24.13-1.07,1.53-5.15.96-6.09l-3.76-3.67c-1.52-1.9-1.09-1.61-5.46-.69-3.08.65-3.14.76-4.28-2.15-.56-1.44-2.13-4.02-1.83-5.79,1.23-1.5,4.06-2.66,5.6-4,.07-9.34.73-6.94-2.85-9.4-4.45-3.05-3.17-1.5.12-10.36,3.02-.07,5.51,1.19,7.71.88.61-.67,1.37-1.85,2.15-2.6.65-.63,2.43-1.9,2.68-2.45.76-1.68-2.13-6.2-.45-7.58.25-.21,6.72-2.88,7.01-2.89,1.35-.06,1.72,1.22,2.46,2.21,1.58,2.14,1.55,3.23,2.74,3.5.32.07.62.03.94.03l6.36-.21c1.02-.6,2.71-5.27,4.4-5.49.48-.06,6.65,2.46,7.01,2.71,1.69,1.16-.22,5.47-.22,8.02m-14.87,32.53c6.18,0,11.98-5.34,12.34-12.32.57-11.12-13.75-17.21-21.6-8.98-7.81,8.18-1.93,21.31,9.26,21.31"/><path class="cls-1" d="m67.8.27c.8,5.25.69,3.83,4.42,5.61,1.18.57,1.71-.26,2.85-1.04,1.28-.88,2.09-.8,3.06.24,3.47,3.7,2.28,2.21.51,5.35-.72,1.28.1,2.22.52,3.35.54,1.47.35,2,2.01,2.28,3.37.56,3.07-.55,3.07,4.58,0,1.91-1.02,1.56-2.68,1.85-1.9.33-1.73.66-2.36,2.17-.45,1.1-1.25,2.09-.61,3.38,1.84,3.69,3.18,1.54-1.63,6.57-2.68-.36-2.42-3.03-5.84-1.45-1.11.51-2.16.45-2.65,1.67-.34.86-.52,2.55-.75,3.52-6.38,1.04-5.63-.7-6-2.87-.29-1.72-.83-1.57-2.4-2.17-1.29-.5-1.78-1.19-3.1-.5-3.29,1.72-1.99,3.46-6.42-1.54.31-3.04,3.01-2.46,1.37-5.81-1.07-2.18.07-2.63-3.16-3.08-1.3-.18-1.77-.12-2.06-1.17,0-.02-.13-.66-.14-.69-.69-6.45,3.07-3.17,4.51-5.27.06-.09,1.62-3.64,1.65-3.75-.43-1.38-2.41-2.87-2.05-4.1.25-.88,2.56-2.9,3.51-3.44,3.75,1.47,2,2.94,5.79,1.33,1.4-.59,2.12-.33,2.47-1.81.36-1.56.23-2.1.93-3.36,1.11-.12,4.47-.2,5.17.17m-1.48,11.43c-8.82-2.31-13.53,12.65-2.61,15.26,8.41,2.01,14.02-12.27,2.61-15.26"/></g></g></svg>