<?xml version="1.0" encoding="UTF-8"?>
<svg id="Layer_2" data-name="Layer 2" xmlns="http://www.w3.org/2000/svg" viewBox="0 0 759.55 760.16">
  <defs>
    <style>
      .cls-1 {
        fill: #e84b0f;
      }

      .cls-1, .cls-2 {
        stroke-width: 0px;
      }

      .cls-2 {
        fill: #f59c00;
      }
    </style>
  </defs>
  <g id="layer">
    <path class="cls-2" d="M606.74,215.17c13.51,4.77,25.98,8.86,38.23,13.56,18.23,7,33.92,3.78,47.28-10.55,1.59-1.7,3.31-3.28,4.99-4.9.22-.21.59-.28.89-.42,74.24,132.26,62.36,331.02-85.63,458-145.6,124.94-361.05,117.89-499.7-15.7C-23.51,523.84-38.22,307.42,79.27,159.23,201.71,4.8,404.58-16.79,547.5,61.93c-2.87,2.63-5.63,4.95-8.15,7.5-11.77,11.96-14.95,25.99-9.57,41.83,4.59,13.54,9.47,26.98,14.62,41.6-71.3-49.78-148.85-67.61-233-49.96-84.19,17.66-148.65,64.72-192.36,138.7-72.81,123.2-44.13,280.54,66.99,372.81,108.2,89.84,268.62,87.87,375.42-3.92,116.24-99.91,135.55-272.74,45.3-395.32Z"/>
    <path class="cls-2" d="M583.89,230.81c72.72,93.17,75.89,246.86-27.95,347.88-103.54,100.74-268.8,99.8-371.13-1.8-102.72-101.99-105.1-267.08-4.95-371.47,100.8-105.07,254.94-102.54,349.35-29.28-18.69,18.7-37.41,37.42-56.3,56.33-46.4-28.85-96.47-37.57-149.7-23.52-44.6,11.77-79.9,37.38-105.97,75.43-51.39,74.99-39.85,177.44,26.88,239.97,66.89,62.69,169.25,67.32,241.61,10.98,74.65-58.12,95.35-165.31,41.8-248.23,18.86-18.84,37.64-37.6,56.36-56.3Z"/>
    <path class="cls-2" d="M453.22,252.82c-19.29,19.28-38.22,38.28-57.33,57.09-1.14,1.12-3.92,1.35-5.7.94-42.39-9.72-84.62,14.69-95.67,56.49-8.7,32.89.2,61.49,26.53,82.98,26.35,21.5,56.33,24.58,86.55,9.11,29.83-15.26,44.14-40.95,43.36-74.59-.13-5.44-1.61-10.85-2.17-16.3-.17-1.7.04-4.09,1.1-5.16,18.5-18.73,37.15-37.31,55.78-55.91.34-.34.8-.56,1.21-.84,32.69,48.58,36.97,136.14-25.11,196.31-60.71,58.85-157.49,59.55-219.14,1.67-61.46-57.71-67.27-154.19-13.26-218.03,57.12-67.52,147.88-69.71,203.85-33.76Z"/>
    <path class="cls-1" d="M696.81,42.93c3.16-3.49,5.59-6.45,8.3-9.13,6.58-6.5,15.37-6.81,21.39-.93,6.05,5.91,5.74,15.1-.9,21.77-2.69,2.7-5.72,5.07-9.09,8.03,10.97,10.87,21.12,20.92,31.26,30.98,2.13,2.11,4.27,4.21,6.36,6.36,7.18,7.4,7.26,16.08.03,23.37-12.9,13.02-25.9,25.93-38.86,38.89-13.43,13.43-27,26.72-40.22,40.36-6.28,6.47-12.96,7.67-21.27,4.61-18.27-6.73-36.74-12.94-55.03-19.63-3.56-1.3-5.62-.55-8.18,2.01-68.02,68.16-136.13,136.24-204.23,204.33-1.65,1.65-3.27,3.33-4.97,4.92-6.44,6.04-15.22,6.11-21.03.2-5.85-5.95-5.76-14.66.49-21.03,10.39-10.58,20.94-21,31.42-31.48,59.26-59.25,118.49-118.53,177.84-177.69,2.69-2.68,2.99-4.79,1.75-8.21-6.7-18.46-13.03-37.06-19.73-55.53-2.89-7.95-1.51-14.37,4.57-20.4,26.28-26.03,52.36-52.26,78.52-78.4,8.42-8.42,16.72-8.48,25.17-.05,11.9,11.88,23.71,23.85,36.4,36.64Z"/>
    <path class="cls-1" d="M100.77,681.82c13.7,11.1,27.11,21.95,40.95,33.16-3.86,4.78-7.88,9.78-11.93,14.76-5.66,6.98-11.22,14.03-17.01,20.9-9.02,10.7-24.83,12.38-36,3.99-11.04-8.29-14.14-24.58-5.87-35.65,9.54-12.78,19.95-24.91,29.86-37.17Z"/>
    <path class="cls-1" d="M600.92,714.98c13.79-11.15,27.2-22,41-33.16,10.03,12.44,20.76,24.74,30.31,37.89,7.98,11,4.37,27-6.65,35.16-10.78,7.98-26.36,6.33-35.32-3.74-.33-.37-.64-.77-.96-1.15-9.43-11.63-18.87-23.26-28.38-34.99Z"/>
  </g>
</svg>