<svg
  width="369px"
  height="74px"
  viewBox="0 0 369 74"
  version="1.1"
  xmlns="http://www.w3.org/2000/svg"
  xmlns:xlink="http://www.w3.org/1999/xlink"
>
    <!-- Generator: Sketch 48.2 (47327) - http://www.bohemiancoding.com/sketch -->
    <title>Jugend_Eine_Welt_Logo quer_weiss</title>
    <desc>Created with Sketch.</desc>
    <defs>
        <polygon
      id="path-1"
      points="37.4033742 74 0.027607362 74 0.027607362 0.0181509434 37.4033742 0.0181509434 74.7791411 0.0181509434 74.7791411 74 37.4033742 74"
    />
    </defs>
    <g
    id="Menü-Alternative"
    stroke="none"
    stroke-width="1"
    fill="none"
    fillRule="evenodd"
    transform="translate(-199.000000, -13.000000)"
  >
        <g
      id="Jugend_Eine_Welt_Logo-quer_weiss"
      transform="translate(199.000000, 13.000000)"
    >
            <g id="Group-3">
                <mask id="mask-2" fill="white">
                    <use xlink:href="#path-1" />
                </mask>
                <g id="Clip-2" />
                <path
          d="M70.372546,42.8124906 C69.7978528,47.2492327 68.3231595,51.4039371 66.1269939,55.0732201 C65.3134969,56.4322138 64.4019939,57.7237233 63.4030675,58.9403019 C60.0773006,62.9888931 55.6288344,65.9158491 50.7239264,67.9017484 C57.8015337,64.4214214 63.3947853,58.3282893 66.2866564,50.8729057 C66.4191718,50.5913333 66.543865,50.3060377 66.6685583,50.0202767 C68.6972393,46.2085786 69.9768405,41.9347296 70.3256135,37.3993208 C70.3605828,38.0308805 70.5027607,39.0282516 70.5027607,39.6681887 C70.5027607,40.7609686 70.4733129,41.746239 70.372546,42.8124906 Z M37.590184,68.0962893 C23.5891104,68.0962893 12.3777607,59.4764528 8.39907975,45.1534969 C8.35398773,44.9431321 8.30981595,44.7332327 8.26886503,44.5214717 C8.07883436,43.5417862 7.93067485,42.547673 7.83220859,41.5382013 C8.34064417,43.9653082 9.12285276,46.2904906 10.1424847,48.4811698 C15.2033742,59.3563774 26.1377301,66.9057736 38.7869632,66.9057736 C39.6317485,66.9057736 40.4659509,66.8620252 41.2941718,66.7954717 C39.9248466,66.9914088 38.527454,67.0993836 37.1056748,67.0993836 C30.5567485,67.0993836 24.498773,64.9459371 19.5768405,61.3083019 C24.5369632,65.2014465 30.7559816,67.5275597 37.5055215,67.5275597 C41.3815951,67.5275597 44.9797546,66.7424151 48.4191718,65.4471824 C49.4148773,65.1227925 50.4391104,64.6690189 51.3892638,64.2506164 C50.6065951,64.7532579 49.8326687,65.2209937 48.8871166,65.6314843 C45.397546,67.0500503 41.5753067,68.0962893 37.590184,68.0962893 Z M34.6283742,69.3310189 C34.0072086,69.360805 33.1154908,69.3156604 32.4934049,69.2574843 C29.3654908,68.8148805 28.0955521,68.4081132 25.5515337,67.2390063 C23.8808282,66.4375723 22.4208589,65.3717862 20.9268405,64.2966918 C25.4171779,67.1463899 30.6579755,68.8898113 36.2783742,69.1415975 C35.6866564,69.2756352 35.1842025,69.3044906 34.6283742,69.3310189 Z M7.26211656,52.9453711 C6.33911043,51.282 5.56242331,49.5274088 4.94447853,47.6978868 C4.66334356,46.8657358 4.41165644,46.0214843 4.19861963,45.1600126 C3.58941718,42.6961384 3.26134969,40.1210314 3.26134969,37.4686667 C3.26134969,36.5881132 3.30690184,35.7182642 3.37638037,34.8558616 C3.7559816,31.2517358 4.7351227,27.8267925 6.20935583,24.6838868 C8.44877301,19.9106541 11.8320552,15.7908553 15.9993865,12.6861132 C11.3935583,16.5913585 7.82714724,21.7080629 5.77960123,27.5475472 C7.60076687,22.6104906 10.5363497,18.2212201 14.272546,14.685044 C12.4753067,16.9106289 10.9720859,19.3861384 9.81349693,22.0487421 C8.20214724,25.0762264 7.06334356,28.3959874 6.48634969,31.9056352 C5.92361963,34.2815472 5.61717791,36.757522 5.61717791,39.3056352 C5.61717791,48.9107421 9.85812883,57.5273208 16.5386503,63.3593585 C12.7343558,60.6325283 9.55490798,57.0749434 7.26211656,52.9453711 Z M25.5478528,9.41056604 C28.3302147,8.05483019 31.3398773,7.10446541 34.5009202,6.62974843 C35.5177914,6.47662893 36.5503067,6.37191195 37.5966258,6.32071698 C38.3820552,6.39611321 39.1578221,6.50548428 39.9253067,6.6390566 C42.5641104,7.09748428 45.090184,7.89054088 47.4616564,8.97354717 C49.1792945,9.75822642 50.7952454,10.8682264 52.3315951,11.9395975 C52.9932515,12.4008176 53.609816,13.054717 54.2332822,13.5643396 C49.4861963,10.2133962 43.7208589,8.2405283 37.5055215,8.2405283 C22.6748466,8.2405283 10.3909509,19.4433836 8.46855828,33.9208553 C8.4851227,33.3833082 8.5154908,32.8494843 8.55920245,32.3193836 C8.63374233,31.4211447 8.78604294,30.6318113 8.98297546,29.6735346 C11.4680982,20.9019748 17.5467791,13.3102264 25.5478528,9.41056604 Z M38.7869632,4.20589937 C47.0019939,4.20589937 54.4601227,7.53031447 59.9291411,12.9123019 C58.9302147,12.0754969 57.8769939,11.3038491 56.7837423,10.5894465 C51.584816,7.01510692 45.3565951,4.87050314 38.6521472,4.69411321 C37.473773,4.54657862 36.2783742,4.46140881 35.0654908,4.44465409 C36.2861963,4.29293082 37.526227,4.20589937 38.7869632,4.20589937 Z M59.0714724,57.2946164 C58.3035276,58.143522 57.7541411,58.8369811 56.5927914,59.7273082 C53.7851227,61.792327 50.6153374,63.3816981 47.1993865,64.38 C57.2544479,60.5785409 64.6743865,51.271761 65.8541411,40.1028805 C65.8398773,40.3542013 65.8177914,40.603195 65.797546,40.8526541 C65.1464724,47.0346792 62.7294479,52.6884654 59.0714724,57.2946164 Z M68.0273006,31.9749811 C68.321319,33.6867547 68.5794479,35.4464654 68.4832822,37.2396855 C68.1391104,43.6572075 67.106135,46.1364403 65.6645706,49.1411195 C65.370092,49.7522013 65.0415644,50.2725283 64.8023006,50.6751069 C66.0257669,47.6429686 66.8134969,44.3878994 67.0918712,40.9871572 C67.2138037,39.8306164 67.2796012,38.6577862 67.2796012,37.4686667 C67.2796012,32.2048931 66.0501534,27.2282767 63.8751534,22.8073585 C62.2941718,19.5918491 60.2148773,16.6690818 57.7325153,14.1512201 C62.8072086,18.6763899 66.8217791,24.9533585 68.0273006,31.9749811 Z M68.2546012,27.2506164 C68.729908,29.1262138 68.958589,31.0986164 69.0736196,33.0933585 C68.4883436,28.4620755 66.9257669,24.136566 64.5947853,20.3388302 C66.0441718,22.4871572 67.3219325,24.7872075 68.2546012,27.2506164 Z M68.5449387,24.0123019 C67.9398773,22.3261258 67.1940184,20.7092956 66.3303681,19.168327 C65.5187117,17.7195094 64.5989264,16.341434 63.581135,15.0443396 C61.968865,12.9881635 60.1141104,11.1367673 58.0582822,9.53483019 C54.6920245,6.91225157 50.7957055,4.95520755 46.5575153,3.86847799 C45.7697853,3.66695597 44.9682515,3.50080503 44.1588957,3.36025157 C43.6076687,3.24064151 43.0518405,3.13499371 42.4918712,3.04330818 C41.4124233,2.86598742 40.3159509,2.74265409 39.2052147,2.67191195 C38.4897239,2.62630189 37.7705521,2.59465409 37.0435583,2.59465409 C27.6230061,2.59465409 19.0895706,6.5012956 12.9363497,12.7936226 C11.7657975,13.8468428 10.6711656,14.9838365 9.6607362,16.1948302 C5.40966258,21.2896604 2.65674847,27.6960126 2.08205521,34.7213585 C1.96058282,35.8760377 1.8952454,37.0479371 1.8952454,38.2347296 C1.8952454,38.406 1.90582822,38.5749434 1.90812883,38.7457484 C2.07193252,49.5809308 7.41579755,59.1627673 15.5443252,65.0711321 C15.9538344,65.3685283 16.3697853,65.6570818 16.7930982,65.9358616 C17.4952454,66.3980126 18.2116564,66.8396855 18.9492331,67.2473836 C20.3930982,68.0450943 21.903681,68.7338994 23.4685583,69.307283 C23.7519939,69.4110692 24.0400307,69.5055472 24.3271472,69.6018868 C26.0682515,70.1845786 27.8714724,70.6271824 29.7276074,70.9064277 C29.7736196,70.9134088 29.8205521,70.9180629 29.8661043,70.9245786 C31.3983129,71.1484403 32.9627301,71.2699119 34.5552147,71.2699119 C34.7889571,71.2699119 35.0199387,71.2568805 35.2532209,71.2522264 C36.5130368,71.4016226 37.7912577,71.4872579 39.0897239,71.4872579 C41.0369632,71.4872579 42.9418712,71.3043522 44.7966258,70.9725157 C44.9088957,70.9525031 45.0207055,70.9334214 45.1320552,70.9120126 C48.9082822,70.195283 52.4567485,68.8227925 55.6582822,66.9118239 C56.9420245,66.145761 58.1682515,65.2931321 59.332362,64.3623145 C65.523773,59.4126918 69.907362,52.254239 71.3116564,44.0700252 C71.4653374,43.1745786 71.5849693,42.2679623 71.6654908,41.3492453 C71.7506135,40.3765409 71.8026074,39.3931321 71.8026074,38.3985535 C71.8026074,36.0096101 71.5449387,33.6816352 71.0673313,31.4351069 C70.5147239,28.8357987 69.6634969,26.3472579 68.5449387,24.0123019 Z M68.4354294,54.4160629 C66.9276074,57.1722138 65.0723926,59.705434 62.9342025,61.9645283 C56.4023006,68.8684025 47.2141104,73.1804151 37.0435583,73.1804151 C35.4358896,73.1804151 33.8553681,73.0622013 32.3029141,72.8536981 C19.0789877,71.0781635 8.11150307,61.9924528 3.51395706,49.7503396 C2.01395706,45.7562013 1.18527607,41.4306918 1.18527607,36.9106415 C1.18527607,29.2369811 3.56042945,22.1171572 7.59662577,16.2497484 C14.0792945,6.82568553 24.8576687,0.640867925 37.0435583,0.640867925 C46.7259202,0.640867925 55.5179448,4.54890566 61.9757669,10.8798616 C66.2365031,15.0559748 69.4849693,20.2829811 71.2904908,26.1508553 C72.3368098,29.5520629 72.9009202,33.1664277 72.9009202,36.9106415 C72.9009202,37.727434 72.8645706,38.5353836 72.8116564,39.3386792 C72.5880368,44.7881509 71.0291411,49.9118365 68.4354294,54.4160629 Z M70.1581288,20.656239 C64.2128834,8.44391195 51.783589,0.0181509434 37.4411043,0.0181509434 C23.5523006,0.0181509434 11.456135,7.91939623 5.30659509,19.5090063 C1.94079755,24.9142642 0,31.2326541 0,37.9810818 C0,49.0875975 5.24815951,59.0338491 13.4779141,65.6459119 C19.9647239,70.8580252 28.3021472,74 37.3895706,74 C49.4498466,74 60.1877301,68.4653585 67.0292945,59.9004403 C71.8831288,53.8231321 74.7791411,46.2239371 74.7791411,37.9810818 C74.7791411,31.7041132 73.1001534,25.7999371 70.1581288,20.656239 Z"
          id="Fill-1"
          fill="#D10B25"
          mask="url(#mask-2)"
        />
            </g>
            <path
        d="M87,44.4231357 L90.6977543,44.4231357 C91.0498759,45.7522814 92.1921242,46.4170854 94.124499,46.4170854 C95.490521,46.4170854 96.4538457,45.9889849 97.0139958,45.1318593 C97.5741459,44.275196 97.8546981,42.9747136 97.8546981,41.2304121 L97.8546981,27 L102,27 L102,41.1102111 C102,44.125407 101.339653,46.3611457 100.018958,47.8165025 C98.6987404,49.2718593 96.5788536,50 93.6612062,50 C91.7231058,50 90.1576436,49.5085628 88.9648196,48.5243015 C87.7719957,47.5409648 87.1168967,46.1739095 87,44.4231357"
        id="Fill-4"
        fill="#D10B25"
      />
            <path
        d="M106,27 L109.814584,27 L109.814584,42.3213434 C109.814584,43.5355589 110.168071,44.5238095 110.875484,45.2847118 C111.582897,46.045614 112.555534,46.4260652 113.793836,46.4260652 C115.178802,46.4260652 116.257266,46.0529925 117.02835,45.3073083 C117.799435,44.5616241 118.185416,43.5410927 118.185416,42.244792 L118.185416,27 L122,27 L122,42.5602206 C122,44.8858145 121.257458,46.7069073 119.771935,48.0244211 C118.286412,49.3414737 116.303373,50 113.823257,50 C111.32338,50 109.393913,49.3566917 108.036172,48.0705363 C106.67887,46.784381 106,44.9425363 106,42.5440802 L106,27"
        id="Fill-5"
        fill="#D10B25"
      />
            <path
        d="M143.957081,29.1812611 L142.164241,32.3550345 C141.659223,31.9426207 140.880837,31.5329261 139.828593,31.1245911 C138.774877,30.7162562 137.869868,30.5123153 137.113568,30.5123153 C134.745037,30.5123153 132.875144,31.2528473 131.503889,32.7348177 C130.133126,34.2167882 129.447989,36.2018128 129.447989,38.6894384 C129.447989,41.0560591 130.120856,42.9477241 131.46659,44.3639803 C132.812814,45.7802365 134.644426,46.4876847 136.962406,46.4876847 C138.48924,46.4876847 139.747123,46.1033695 140.736056,45.3342857 L140.736056,40.9640591 L137.392825,40.9640591 L137.392825,37.5935961 L145,37.5935961 L145,47.5549754 C143.979166,48.3249655 142.664843,48.9245517 141.05752,49.3546404 C139.449707,49.7847291 137.849746,50 136.258619,50 C132.802017,50 130.061471,48.9553695 128.036981,46.8656552 C126.01249,44.7754877 125,42.0145813 125,38.5838424 C125,35.1531034 126.102304,32.3640985 128.307894,30.2186404 C130.512503,28.0727291 133.479792,27 137.209762,27 C139.853132,27 142.102893,27.7273892 143.957081,29.1812611"
        id="Fill-6"
        fill="#D10B25"
      />
            <polyline
        id="Fill-7"
        fill="#D10B25"
        points="152.203387 30.633158 152.203387 36.0242958 159.915323 36.0242958 159.915323 39.4816559 152.203387 39.4816559 152.203387 46.366842 163 46.366842 163 50 148 50 148 27 163 27 163 30.633158 152.203387 30.633158"
      />
            <polyline
        id="Fill-8"
        fill="#D10B25"
        points="181.507665 50 171.507804 35.6392161 171.507804 49.7110553 168 49.7110553 168 27 169.754112 27 179.492196 40.6959799 179.492196 27 183 27 183 50 181.507665 50"
      />
            <path
        d="M190.821086,30.7144649 L190.821086,46.300888 C191.439973,46.3636952 192.108124,46.394401 192.82554,46.394401 C194.760495,46.394401 196.275821,45.6518802 197.371079,44.1654429 C198.466337,42.6799361 199.013526,40.6017153 199.013526,37.9312458 C199.013526,33.0481016 196.867876,30.605599 192.574818,30.605599 C192.162227,30.605599 191.57721,30.6418877 190.821086,30.7144649 Z M191.788784,50 L187,50 L187,27.1712078 C190.054845,27.0572243 191.975285,27 192.76132,27 C195.903698,27 198.395959,27.9751401 200.238103,29.9240245 C202.078928,31.872909 203,34.4591703 203,37.6814127 C203,45.8938042 199.262928,50 191.788784,50 Z"
        id="Fill-9"
        fill="#D10B25"
      />
            <polyline
        id="Fill-10"
        fill="#D10B25"
        points="223.203871 30.633158 223.203871 36.0242958 230.915323 36.0242958 230.915323 39.4816559 223.203871 39.4816559 223.203871 46.366842 234 46.366842 234 50 219 50 219 27 234 27 234 30.633158 223.203871 30.633158"
      />
            <polygon
        id="Fill-11"
        fill="#D10B25"
        points="236 50 240 50 240 27 236 27"
      />
            <polyline
        id="Fill-12"
        fill="#D10B25"
        points="258.507665 50 248.507804 35.6392161 248.507804 49.7110553 245 49.7110553 245 27 246.754112 27 256.492196 40.6959799 256.492196 27 260 27 260 50 258.507665 50"
      />
            <polyline
        id="Fill-13"
        fill="#D10B25"
        points="271.203871 30.633158 271.203871 36.0242958 278.915323 36.0242958 278.915323 39.4816559 271.203871 39.4816559 271.203871 46.366842 282 46.366842 282 50 267 50 267 27 282 27 282 30.633158 271.203871 30.633158"
      />
            <polyline
        id="Fill-14"
        fill="#D10B25"
        points="312.893323 50 311.298294 50 306.485899 35.697005 301.813622 50 300.218593 50 293 27 297.057185 27 301.183758 40.6959799 305.646527 27 307.353473 27 311.83012 40.6959799 315.942815 27 320 27 312.893323 50"
      />
            <polyline
        id="Fill-15"
        fill="#D10B25"
        points="326.203387 30.633158 326.203387 36.0242958 333.915323 36.0242958 333.915323 39.4816559 326.203387 39.4816559 326.203387 46.366842 337 46.366842 337 50 322 50 322 27 337 27 337 30.633158 326.203387 30.633158"
      />
            <polyline
        id="Fill-16"
        fill="#D10B25"
        points="341 50 341 27 344.939498 27 344.939498 46.366842 355 46.366842 355 50 341 50"
      />
            <polyline
        id="Fill-17"
        fill="#D10B25"
        points="360.968985 30.633158 360.968985 50 356.692308 50 356.692308 30.633158 349 30.633158 349 27 369 27 369 30.633158 360.968985 30.633158"
      />
        </g>
    </g>
</svg>
