<?xml version="1.0" encoding="UTF-8"?><svg id="Layer_2" xmlns="http://www.w3.org/2000/svg" viewBox="0 0 189.36 145.97"><defs><style>.cls-1{fill:#fff;}</style></defs><g id="Objects"><g><path class="cls-1" d="m45.05,24.79c0,2.66.02,5.23-.04,7.79,0,.22-.64.59-.98.6-2.57.05-5.15.03-7.72.03-5.62,0-11.25.03-16.87-.02-1.12-.01-1.39.36-1.39,1.42.02,27.92.02,55.84.02,83.76,0,.43.05.85.09,1.41h1.5c50.02,0,100.03,0,150.05,0q1.63,0,1.63-1.57c0-27.8,0-55.6,0-83.4q0-1.58-1.53-1.58c-2.53,0-5.07.02-7.6-.03-.35,0-.98-.39-.98-.61-.07-2.56-.04-5.13-.04-7.72.26-.07.41-.14.55-.14,4.24,0,8.48-.06,12.71,0,2.83.04,4.99,2.19,5.22,5.02.03.39.02.79.02,1.19,0,30.33,0,60.67,0,91,0,3.16-1.43,5.21-4.11,5.9-.53.13-1.1.17-1.64.17-52.83,0-105.66,0-158.48,0-3.55,0-5.74-2.23-5.74-5.82,0-26.49,0-52.99,0-79.48,0-4.16,0-8.32,0-12.47,0-3.09,2.28-5.5,5.35-5.51,9.74-.04,19.48-.02,29.23-.01.19,0,.39.04.77.08Z"/><path class="cls-1" d="m152.72,24.47c-.31,1.89-.73,3.4-.76,4.93-.04,1.8-.05,3.7.47,5.39,2.04,6.62,5.34,12.28,12.39,14.75,1.17.41,1.75,1.33,1.69,2.59-.16,3.24-.31,6.49-.52,9.73-.09,1.39-.8,2.15-2.15,2.49-4.72,1.2-8.31,3.89-10.9,8.02-1.54,2.46-3.25,4.85-3.58,7.8-.24,2.1-.22,4.25-.09,6.36.09,1.6-.2,2.55-1.67,3.3-2.71,1.4-5.43,2.78-8.15,4.14-1.42.71-2.45.54-3.55-.58-3.41-3.49-7.56-5.15-12.41-5.39-3.78-.19-7.45-.08-10.85,1.79-1.17.65-2.26,1.45-3.35,2.23-1.22.88-2.15.98-3.39.19-2.63-1.69-5.25-3.4-7.86-5.12-1.27-.84-1.6-1.79-1.19-3.27,1.28-4.6.84-9-1.45-13.21-.64-1.18-1.18-2.43-1.89-3.56-2.05-3.26-4.93-5.53-8.52-6.9-1.68-.64-2.16-1.34-2.08-3.14.13-3.01.29-6.01.47-9.02.1-1.71.75-2.42,2.46-2.88,4.45-1.18,7.89-3.7,10.38-7.58,1.65-2.57,3.5-5.07,3.83-8.2.23-2.14.17-4.33.07-6.48-.07-1.39.25-2.4,1.51-3.05,2.81-1.45,5.64-2.89,8.47-4.3,1.29-.64,2.36-.45,3.35.58,3.45,3.58,7.69,5.35,12.63,5.43,1.93.03,3.89.08,5.8-.15,3.01-.37,5.65-1.73,8-3.64,1.42-1.16,2.37-1.22,3.88-.25,2.53,1.64,5.04,3.29,7.57,4.92.9.58,1.4,1.37,1.4,2.08Zm-28.02,8.63c-11.97-.04-21.63,9.63-21.67,21.68-.04,11.88,9.67,21.64,21.58,21.67,11.98.03,21.73-9.57,21.77-21.45.04-12.21-9.52-21.86-21.68-21.9Z"/><path class="cls-1" d="m115.26,133.92h1.43c22.18,0,44.36.06,66.53-.04,5.76-.03,7.11,5.17,5.5,9.09-.72,1.76-2.25,2.73-4.16,2.95-.55.06-1.11.05-1.66.05-58.81,0-117.62,0-176.43-.03-1.23,0-2.6-.15-3.66-.71-2.77-1.46-3.19-4.1-2.54-7.36.49-2.45,2.68-3.95,5.39-3.95,22.45,0,44.91,0,67.36-.02.76,0,1.17.14,1.42.98.61,2.05,2.35,3.32,4.57,3.32,10.46.03,20.91.04,31.37,0,2.71-.01,4.26-1.62,4.89-4.29Z"/><path class="cls-1" d="m86.54,103.11c-1.49,0-3.04-.26-4.47.05-5.22,1.12-9.43,3.65-11.26,9.04-.33.96-.95,1.42-1.94,1.42-1.98,0-3.96-.01-5.94.01-1.15.01-1.86-.46-2.16-1.61-1.4-5.33-8.75-9.4-13.16-8.99-.79.07-1.57.2-2.35.32-.88.13-1.55-.17-2-.95-1.01-1.75-2.01-3.5-3.03-5.24-.53-.9-.48-1.75.28-2.48,4.19-3.97,4.23-13.62.01-17.66-.81-.77-.81-1.64-.25-2.58.97-1.63,1.92-3.28,2.85-4.93.57-1.02,1.32-1.47,2.54-1.13,5.52,1.53,13.63-3.19,15.08-8.66.33-1.25,1.11-1.72,2.34-1.7,1.86.03,3.72.02,5.58,0,1.14-.01,1.91.46,2.18,1.59,1.34,5.48,9.67,10.41,15.36,8.73.9-.27,1.59.04,2.04.78,1.11,1.83,2.18,3.68,3.21,5.55.44.8.38,1.65-.32,2.29-4.25,3.93-4.24,13.79,0,17.76.74.69.73,1.56.25,2.39-1.01,1.79-2,3.6-3.12,5.33-.33.52-1.05.79-1.59,1.17l-.16-.49Zm-20.73-2.74c7.95.03,14.52-6.52,14.54-14.49.03-8.02-6.55-14.59-14.58-14.58-7.97.01-14.49,6.56-14.48,14.55,0,7.96,6.53,14.49,14.52,14.52Z"/><path class="cls-1" d="m89.38,35.24c-3.17-.86-5.71.04-8.15,1.56-1.96,1.22-3.42,2.82-4.11,5.03-.31.98-.86,1.43-1.89,1.41-1.38-.02-2.77.03-4.15.07-.95.03-1.62-.35-1.86-1.3-1.05-4.2-7.71-7.87-11.59-6.7-1.06.32-1.81-.02-2.34-1.04-.62-1.19-1.35-2.33-2.04-3.48-.46-.77-.47-1.49.19-2.16,3.18-3.16,3.06-10.51-.11-13.56-.66-.64-.72-1.35-.26-2.15.72-1.23,1.44-2.46,2.09-3.72.46-.89,1.12-1.15,2.05-.96,3.81.78,6.83-.9,9.45-3.34.99-.92,1.56-2.34,2.18-3.61.38-.78.8-1.21,1.67-1.22,1.46,0,2.93-.05,4.39-.08.91-.02,1.53.35,1.76,1.25,1.14,4.38,7.91,8.03,11.91,6.7.79-.26,1.39.03,1.81.73.78,1.33,1.57,2.66,2.36,3.98.42.71.37,1.38-.22,1.95-3.23,3.14-3.11,10.63.08,13.66.64.61.68,1.31.27,2.05-.75,1.35-1.47,2.72-2.3,4.01-.28.43-.86.66-1.19.9Zm-16.38-24.88c-6.22-.02-11.32,4.99-11.36,11.16-.04,6.27,5,11.42,11.22,11.44,6.28.03,11.39-5,11.44-11.23.04-6.22-5.05-11.36-11.29-11.38Z"/></g></g></svg>