<?xml version="1.0" encoding="UTF-8"?><svg id="Layer_2" xmlns="http://www.w3.org/2000/svg" viewBox="0 0 137.31 180.99"><defs><style>.cls-1{fill:#fff;}</style></defs><g id="Objects"><g><path class="cls-1" d="m61.91,35.65V11.64c2.97.13,5.87.15,8.75.44,1.37.14,1.87-.29,2.34-1.5,1.23-3.16,2.66-6.23,3.93-9.37.45-1.1,1.03-1.45,2.16-1.04,5.79,2.09,11.58,4.18,17.37,6.24,1.25.44,1.37,1.28,1.12,2.41-.72,3.24-1.44,6.48-2.05,9.74-.1.56.16,1.47.58,1.8,4.82,3.69,9.71,7.31,14.85,11.14,2.55-1.21,5.69-2.62,8.76-4.18,1.21-.61,1.99-.52,2.67.65,2.99,5.14,5.98,10.28,8.99,15.42.57.98.4,1.67-.52,2.4-2.35,1.83-4.67,3.72-6.89,5.7-.45.4-.72,1.36-.6,1.98,1.04,5.44,2.15,10.87,3.35,16.28.15.65.87,1.45,1.51,1.67,2.5.85,5.06,1.54,7.61,2.21,1.08.29,1.66.77,1.45,1.97-1,5.86-1.95,11.74-3.05,17.58-.1.54-1.19,1.22-1.85,1.27-2.57.18-5.15.06-7.72.2-.59.03-1.42.47-1.68.96-2.72,5.28-5.35,10.6-8.23,16.39,1.05,1.68,2.47,4.04,4,6.34.68,1.02.71,1.79-.27,2.62-4.23,3.58-8.46,7.18-12.66,10.8-1.14.98-2.1.84-3.2-.09-1.29-1.1-2.78-1.96-4.01-3.11-1.32-1.24-2.34-1.26-4.03-.43-4.49,2.18-9.15,4.03-13.8,5.87-1.16.46-1.75.89-1.84,2.21-.15,2.3-.49,4.58-.87,6.85-.09.56-.55,1.46-.95,1.52-4.99.78-9.99,1.43-15.2,2.14v-27.87c3.22,0,6.32.13,9.41-.02,19.18-.96,31.13-14.72,35.48-30.56,6.04-21.97-6.14-44.5-27.49-51.22-4.77-1.5-9.68-2.01-14.67-1.58-.86.07-1.72.13-2.73.21Z"/><path class="cls-1" d="m61.87,61.09v-14.13c2.63,0,5.18-.08,7.71.03,1.19.05,1.97-.15,2.21-1.42.07-.39.25-.77.42-1.14,2.36-5.32.7-4.95,6.62-3.15,6.14,1.87,6.14,2.02,4.53,8.11-.32,1.2-.06,1.76.94,2.46,1.94,1.35,3.68,2.98,5.59,4.37.49.36,1.34.23,2.03.3.11.01.23-.12.36-.18,5.62-2.69,4.1-3.61,7.74,2.32,2.85,4.64,2.75,4.75-1.65,8.06-.91.68-1.1,1.23-.8,2.35.6,2.21,1.04,4.48,1.36,6.75.16,1.12.53,1.58,1.66,1.85,4.76,1.14,4.75,1.19,4.01,6.1-.05.34-.09.67-.15,1-.89,4.61-.9,4.57-5.55,4.64-.65,0-1.6.4-1.89.91-1.43,2.53-2.68,5.15-4.06,7.89.37.54.88,1.25,1.35,1.98,1.72,2.62,1.75,2.66-.47,4.75-1.42,1.35-2.99,2.54-4.44,3.85-.95.86-1.84.83-2.58-.12-1.91-2.44-3.96-2.64-6.5-.88-1.08.75-2.47,1.15-3.78,1.43-1.47.32-1.88,1.11-1.99,2.51-.31,3.92-.36,3.96-4.3,4.28-1.75.14-3.52.18-5.28.1-.52-.02-1.3-.5-1.47-.95-1.59-4.22-2.19-10.81-1.48-15.09,9.54,2.31,17.61-.16,23.15-8.33,4.94-7.28,4.98-15.18-.05-22.52-5.6-8.16-13.64-10.35-23.24-8.14Z"/><path class="cls-1" d="m54.8,11.57v7.02c-4.32.77-8.61,1.18-12.69,2.31C20.52,26.89,6.03,47.22,7.36,69.57c.57,9.58,4.1,18.22,10.23,25.44,8.08,9.52,11.26,20.66,12.49,32.67.28,2.77.64,5.53.74,8.3.07,1.93.9,2.55,2.74,2.58,6.57.1,13.15.3,19.72.47.46.01.92.06,1.5.09v7.03c-4.05,0-8.02.08-12-.02-3.93-.11-7.86-.35-11.78-.63-4.47-.31-6.36-1.95-7-6.41-.69-4.9-1.01-9.84-1.68-14.75-.95-7.04-2.76-13.85-6.68-19.88-1.91-2.94-4.34-5.53-6.33-8.43C-13,63.57,7.09,19.8,44.85,12.77c3.22-.6,6.52-.8,9.95-1.2Z"/><path class="cls-1" d="m54.9,148.85c8-.31,15.99-.63,23.98-.92,2.9-.11,4.87,1.27,5.3,3.65.5,2.75-1.2,5.16-4.1,5.44-3.23.31-6.49.55-9.74.53-12.94-.05-25.88-.22-38.82-.35-.47,0-.95-.05-1.42-.11-2.98-.34-4.72-2.23-4.55-4.93.17-2.66,2.2-4.36,5.17-4.25,8.06.29,16.11.62,24.17.93Z"/><path class="cls-1" d="m54.9,159.96c6.58,0,13.15,0,19.73,0,.68,0,1.36-.01,2.03.07,2.29.28,3.93,2.13,3.97,4.42.04,2.4-1.59,4.39-3.97,4.61-1.62.15-3.25.08-4.88.08-12.27,0-24.55.01-36.82-.01-1,0-2.07-.04-2.99-.37-2.07-.75-3.14-2.9-2.74-5.11.38-2.11,2.13-3.63,4.5-3.64,7.05-.05,14.1-.02,21.15-.02v-.02Z"/><path class="cls-1" d="m44.13,25.76c1.71.13,2.98,1.05,3.36,2.85.38,1.8-.36,3.19-2.01,4.02-.54.27-1.16.38-1.74.56-11.08,3.58-18.73,10.79-22.93,21.65-.24.63-.42,1.29-.68,1.91-.8,1.88-2.66,2.8-4.44,2.23-1.93-.62-2.97-2.45-2.37-4.52,1.6-5.54,4.35-10.49,8.06-14.89,5.52-6.55,12.42-11.01,20.63-13.43.45-.13.91-.25,1.38-.35.2-.04.4-.03.73-.05Z"/><path class="cls-1" d="m54.89,171.37c3.93,0,7.85-.01,11.78,0,1.62,0,3.26-.03,4.86.18,1.95.26,2.39,1.39,1.21,2.98-2.15,2.9-5.07,4.71-8.55,5.46-6.16,1.33-12.38,1.32-18.54,0-3.04-.65-5.74-2.11-7.75-4.53-.67-.8-.9-1.96-1.33-2.96.96-.37,1.91-.99,2.9-1.05,2.29-.14,4.6.01,6.9.02,2.84.01,5.69,0,8.53,0v-.12Z"/></g></g></svg>