<?xml version="1.0" encoding="UTF-8"?><svg id="Layer_2" xmlns="http://www.w3.org/2000/svg" viewBox="0 0 180.63 162.84"><defs><style>.cls-1{fill:#fff;}</style></defs><g id="Objects"><path class="cls-1" d="m84.29,0h8.87c.15.47.52.56.96.62,8.56,1.2,16.23,4.65,22.4,10.54,9.76,9.32,14.05,20.82,12.16,34.45-2.37,17.07-12.58,27.43-28.1,33.37-1.91.73-4.65.03-5.77,1.7-1.18,1.76-.26,4.31-.39,6.51-.02.32.04.64,0,.95-.45,3.01.35,5.13,3.53,6.31,2.21.82,4.14,2.36,6.2,3.58,1.99,1.17,3.43,1.13,4.96-1.1,1.58-2.3,3.65-4.4,5.88-6.11,9.45-7.28,20.07-9.79,31.92-7.88,13.04,2.1,22.19,9.27,28.71,20.44,2.54,4.35,3.14,9.3,5,13.84v10.77c-.81.97-1,2.15-1.3,3.34-3.68,14.27-12.49,23.87-26.32,29.03-3.61,1.35-7.42,1.41-11.04,2.48h-3.8c-1.63-1.4-3.6-.3-5.39-.76-9.93-2.53-18.51-7.11-24.63-15.63-8.2-11.42-10.33-23.8-5.88-37.18.5-1.51.44-2.17-1.07-2.94-2.95-1.49-5.78-3.23-8.6-4.95-2.14-1.31-4.11-1.64-6.32-.05-1.94,1.39-3.97,2.75-6.17,3.63-2.46.99-2.27,2.31-1.58,4.37.88,2.63,1.68,5.38,1.9,8.13,1.18,15-3.53,27.74-15.87,36.77-12.78,9.35-26.84,11.05-41.27,4.24-11.96-5.65-19.31-15.26-22.16-28.35-.53-2.41.42-5-1.12-7.2v-1.9c.94-.4.59-1.25.62-1.92.66-12.45,6.61-22.14,16.21-29.55,7.21-5.57,15.71-7.53,24.87-7.24,10.4.32,19.32,3.79,26.72,11.12,1.7,1.69,3.35,4.6,5.17,4.71,2.2.13,4.48-2.23,6.84-3.29,4.21-1.88,6.15-4.85,5.17-9.52-.19-.91-.09-1.9-.01-2.84.12-1.43-.37-1.83-1.89-2.08-9.9-1.64-18.3-5.97-24.96-13.73-8.34-9.71-11.6-20.8-9.23-33.27,2.86-15.04,11.61-25.39,26.03-30.86,2.86-1.09,6.12-.75,8.77-2.54ZM20.28,148.78c0-6.13.37-11.51-.13-16.8-.34-3.62,1.48-5.44,3.91-7.1,1.53-1.04,3.43-1.4,5.16-2.06,2.12-.82,4.6.18,6.51-1.39-1.66-1.79-3.69-3.1-4.82-5.34-3.63-7.18,1-17.81,11.21-16.7,4.33.47,7.89,1.99,9.5,5.96,1.72,4.24,2.15,8.77-1.38,12.62-1.15,1.25-2.42,2.4-3.63,3.59,1.62,1.01,3.6.79,5.28,1.44,6.48,2.51,9.37,3.62,8.99,11.74-.18,3.69-.07,7.39,0,11.08.02.96-.65,2.35.53,2.81.93.36,1.51-.91,2.17-1.55,7.76-7.34,11.21-16.4,10.57-27.01-.44-7.28-2.99-13.76-7.83-19.27-7.31-8.32-16.52-11.95-27.57-11.53-8.7.33-16.2,3.59-21.95,9.76-7.47,8.02-11.22,17.72-9.15,28.93,1.5,8.14,5.28,15.04,12.63,20.79Zm48.23-81.6c.83-6.05.97-11.68.09-17.29-.35-2.23.11-4.02,1.89-5.25,1.69-1.17,3.38-2.39,5.46-2.87,2.8-.64,5.6-1.32,8.43-1.99-7.07-6.85-8.32-12.73-3.82-17.99,3.95-4.63,11.32-5.57,16.1-2.17,2.74,1.95,4.17,4.81,4.64,7.81.85,5.42-1.95,9.48-6.77,12.6.96.31,1.23.44,1.52.48,10.7,1.21,13.6,4.37,13.6,14.85v11.86c17.01-14.12,16.77-36.32,3.85-49.63-13.24-13.64-36.89-14.26-50.05,1.77-11.16,13.59-11.02,34.01,5.07,47.82Zm67.54,54.89c-8.92-7.05-7.75-13.92-4.11-18.5,4.18-5.26,12.12-5.7,16.99-1.27,2.45,2.23,3.75,5.09,3.79,8.29.06,4.87-2.38,8.51-7.1,11.19,1.93.46,3.24.7,4.5,1.07,7.17,2.12,11.5,3.55,10.9,13.5-.25,4.02-.04,8.07-.04,12.36,2.29-1.29,3.57-2.88,4.96-4.42,7.39-8.18,9.37-18.07,7.22-28.31-3.08-14.64-12.51-23.44-27.49-26.1-10.25-1.82-19.38.75-27.02,7.38-15.38,13.35-15.5,36.32-.95,49.81.5.46.85,1.42,1.74.94.63-.34.33-1.14.34-1.73.02-5.17.05-10.34,0-15.51-.02-2.09.86-3.53,2.51-4.74,3.92-2.89,8.49-3.58,13.77-3.97Z"/></g></svg>