<?xml version="1.0" encoding="UTF-8"?><svg id="Layer_1" xmlns="http://www.w3.org/2000/svg" viewBox="0 0 105.49 90.38"><defs><style>.cls-1{fill:#f99d1c;}.cls-2{fill:#f37021;}.cls-3{fill:#ffcc32;}</style></defs><polygon class="cls-3" points="92.59 72.27 33.53 72.27 38.35 63.92 78.12 63.92 58.24 29.47 53.42 21.12 48.59 12.77 48.7 12.59 58.13 12.59 58.24 12.77 63.06 21.12 87.77 63.92 92.59 72.27"/><polygon class="cls-2" points="78.12 63.92 68.48 63.92 53.42 37.83 48.59 29.47 28.71 63.92 23.89 72.27 19.07 80.61 19.03 80.61 14.22 72.3 14.24 72.27 19.07 63.92 43.78 21.12 48.59 12.77 53.42 21.12 58.24 29.47 78.12 63.92"/><polygon class="cls-1" points="92.6 72.29 87.79 80.61 19.07 80.61 23.89 72.27 28.71 63.92 48.59 29.47 53.42 37.83 38.35 63.92 33.53 72.27 92.59 72.27 92.6 72.29"/></svg>