<?xml version="1.0" encoding="UTF-8"?><svg id="Layer_1" xmlns="http://www.w3.org/2000/svg" viewBox="0 0 297.8 169.23"><defs><style>.cls-1{fill:#f99d1c;}.cls-2{fill:#fff;}.cls-3{fill:#f37021;}.cls-4{fill:#ffcc32;}.cls-5{fill:#414042;}</style></defs><rect class="cls-1" x="158.62" y="131.94" width="127.96" height="22.97" transform="translate(-9.46 15.88) rotate(-4)"/><path class="cls-2" d="m247.3,107.14c0,2.08-1.65,3.6-3.65,3.6h-8.54v-7.14h8.54c2,0,3.65,1.46,3.65,3.54m13.26-.51c0-6.29-4.65-11.86-13.67-11.86h-24.8v38.67h13.02v-14.11h4.83l7.19,14.11h14.61l-9.01-16.19c5.24-1.85,7.84-6.13,7.84-10.62m-42.6,26.81v-9.27h-22.45v-5.9h18.85v-8.88h-18.85v-5.34h22.04v-9.28h-35.06v38.67h35.47Zm-68.58-38.67h-13.02v38.67h13.02v-8.66l7.07-5.51,8.43,14.17h15.38l-14.85-22.77,14.55-15.91h-16.14l-14.44,16.53v-16.53Zm-37.41,10.79l4.24,13.77h-8.78l4.3-13.77h.24Zm7.66-10.79h-15.14l-14.79,38.67h13.32l1.71-5.45h14.2l1.71,5.45h13.79l-14.79-38.67Zm-31.11,0h-17.74l-6.07,22.32h-.24l-6.13-22.32h-18.38v38.67h11.96v-13.94c0-5.85-1.06-12.2-1.06-12.2h.23l7.54,26.14h10.19l7.48-26.19h.24s-.94,6.41-.94,12.25v13.94h12.9v-38.67Z"/><path class="cls-2" d="m68.84,76.06v-4.87h-10.17v4.13c0,2.97-1.34,4.45-4.03,4.45h-2.54c-2.68,0-4.03-1.48-4.03-4.45V26.59c0-2.97,1.34-4.45,4.03-4.45h2.01c3.04,0,4.56,1.48,4.56,4.45v7.84h10.17v-8.58c0-8.62-4.06-12.93-12.18-12.93h-6.57c-8.12,0-12.18,4.31-12.18,12.93v50.22c0,8.62,4.06,12.92,12.18,12.92h6.57c8.12,0,12.18-4.31,12.18-12.92m40.79-39.41V12.92h-10.17v32.31h-12.5V12.92h-10.17v76.07h10.17v-34.54h12.26l10.42-17.8Zm64.51,52.33h10.17V12.92h-10.17v36.76l-10.91-36.76h-10.17v27.38l10.17,17.38v-18.49l10.91,34.64v15.15Zm30.93,0h19.92v-37.08h-15.47v9.22h5.3v18.64h-6.89c-2.97,0-4.45-1.84-4.45-5.51V27.65c0-3.67,1.48-5.51,4.45-5.51h2.54c2.9,0,4.34,1.84,4.34,5.51v6.78h10.17v-8.26c0-8.83-4.31-13.24-12.92-13.24h-6.99c-7.84,0-11.76,4.34-11.76,13.03v50.21c0,8.55,3.92,12.82,11.76,12.82m38.35-9.22v-25.32h13.35v-9.22h-13.35v-23.09h15.04v-9.22h-25.21v76.07h25.21v-9.22h-15.04Z"/><path class="cls-5" d="m266.49,147.26c.02.27.17.39.44.38l2.69-.19c.29-.02.43-.16.41-.43l-.25-3.57,1.07-1.42c.34.43.65.84.93,1.23.28.39.57.78.85,1.16.28.38.56.77.86,1.15.29.38.62.78.97,1.2.07.1.16.18.27.23.11.05.21.08.31.07l3.46-.24c.13,0,.2-.06.19-.15,0-.06-.04-.14-.12-.24l-5.27-6.85,3.92-5.99c.06-.09.09-.17.08-.23,0-.09-.08-.13-.23-.12l-3.48.24c-.1,0-.21.05-.31.12-.1.07-.18.16-.24.27-.6.9-1.19,1.79-1.77,2.66-.58.88-1.18,1.76-1.78,2.66l-.35-4.99c0-.12-.07-.22-.17-.28-.11-.07-.2-.1-.29-.09l-2.71.19c-.13,0-.22.06-.29.14-.07.08-.09.18-.08.29l.89,12.8Zm-8.17-7.61c-.05.19-.12.36-.23.52-.11.16-.24.29-.4.41-.16.11-.35.19-.56.23-.1.02-.2.03-.28.05-.08.01-.18.02-.29.03l-1.68.12-.24-3.36,1.26-.09c.18-.01.34-.02.49-.02.15,0,.31,0,.48,0,.21.02.4.07.58.16.18.09.33.21.47.35.13.14.24.31.32.48.08.18.13.36.14.54.01.19,0,.39-.05.58m-6.51,8.64c.01.14.05.23.13.29.08.06.18.08.3.08l2.72-.19c.28-.02.41-.16.39-.42l-.29-4.13,1.48-.1,2.52,4.03c.03.1.09.18.18.24.09.05.18.08.29.07l3.14-.22c.11,0,.2-.04.26-.1.06-.06.09-.13.08-.23,0-.09-.05-.18-.12-.3s-.14-.21-.19-.29l-2.66-4.27c.32-.21.6-.46.86-.75.26-.28.48-.6.66-.94.18-.34.31-.7.4-1.09.09-.38.12-.78.09-1.2-.04-.61-.2-1.18-.47-1.7-.27-.52-.63-.97-1.07-1.35-.44-.38-.94-.66-1.5-.86-.57-.2-1.16-.27-1.79-.23l-5.92.41c-.14,0-.23.05-.3.14-.06.08-.09.19-.08.31l.89,12.79Zm-18.17-3.28c.21.58.48,1.12.82,1.62.34.49.74.94,1.19,1.33.45.39.95.73,1.49.99.54.27,1.11.47,1.72.59.61.12,1.24.16,1.88.12.64-.05,1.26-.17,1.84-.38.59-.21,1.13-.48,1.63-.82.5-.34.95-.74,1.35-1.19.4-.46.73-.95,1-1.49.27-.54.46-1.11.59-1.72.13-.61.17-1.23.12-1.88-.04-.65-.17-1.26-.38-1.85-.21-.58-.48-1.13-.82-1.63-.34-.5-.74-.95-1.19-1.35-.46-.4-.96-.73-1.5-.99-.54-.27-1.12-.46-1.73-.59-.61-.13-1.24-.17-1.88-.12-.65.05-1.26.17-1.85.38-.58.21-1.12.48-1.62.82-.5.34-.95.74-1.34,1.19-.39.46-.73.96-1,1.5-.27.54-.47,1.12-.59,1.73-.12.61-.16,1.23-.12,1.88.04.65.17,1.26.38,1.85m3.32-3.54c.14-.45.35-.86.64-1.21.29-.35.63-.64,1.04-.85.41-.22.86-.35,1.37-.38.51-.03.98.03,1.42.19.44.16.82.39,1.15.7.33.31.6.68.8,1.11.2.43.32.9.36,1.4.04.51-.02.99-.16,1.44-.14.45-.35.85-.64,1.2-.29.35-.63.63-1.04.85-.41.22-.87.34-1.38.38-.51.03-.98-.03-1.41-.18-.43-.16-.82-.39-1.15-.69-.33-.31-.6-.67-.8-1.1-.2-.43-.32-.9-.36-1.4-.03-.5.02-.98.16-1.43m-19.12,9.59l2.22-.15h.03c.09,0,.17-.04.24-.1.07-.06.12-.13.17-.22.05-.09.09-.18.12-.27.03-.1.06-.19.09-.28.16-.57.33-1.13.49-1.68.16-.55.33-1.11.5-1.68l1.71,3.71c.04.08.09.15.16.2.07.05.18.07.31.06l2.22-.15h.03c.12-.01.22-.06.3-.15.08-.09.13-.17.15-.24.33-1.1.68-2.2,1.04-3.3.35-1.1.71-2.2,1.08-3.3.36-1.1.72-2.2,1.08-3.3.36-1.1.71-2.2,1.05-3.3v-.03s0-.05,0-.1c0-.09-.04-.15-.1-.2-.06-.05-.16-.07-.3-.06l-2.88.2c-.25.02-.41.15-.48.38l-2.39,8.54-1.48-3.51,1.3-4.79v-.03s0-.05,0-.1c0-.09-.04-.15-.1-.2-.06-.05-.16-.07-.3-.06l-2.98.21c-.25.02-.41.14-.48.38l-2.01,8.53-3.39-8.15c-.1-.23-.27-.33-.5-.32l-2.95.21c-.23.02-.33.11-.32.28,0,.02,0,.05.02.07s.02.05.02.08c.93,2.02,1.86,4.02,2.79,6.01.93,1.99,1.85,3.99,2.79,6.01.05.11.11.21.17.32.06.11.13.21.2.31.07.12.2.18.4.16m-19.68-9.6c0,.15.06.27.15.34.09.07.19.11.32.1l3.15-.22.7,10.03c0,.12.06.22.16.3.1.08.2.11.3.1l2.69-.19c.13,0,.23-.06.3-.15.07-.09.11-.2.1-.31l-.7-10.03,3.16-.22c.14-.01.24-.07.31-.17.07-.11.1-.21.09-.32l-.16-2.27c-.02-.13-.08-.23-.17-.29-.09-.06-.19-.09-.3-.08l-9.86.69c-.12,0-.22.05-.3.13-.08.08-.11.18-.1.3l.16,2.27Zm-12.72,11.47c0,.13.05.23.13.29.08.06.18.08.3.07l9.26-.65c.23-.02.35-.11.36-.28.04-.05.07-.11.06-.17l-.16-2.3c-.02-.28-.17-.41-.44-.39l-6.15.43-.16-2.35,4.59-.32c.13,0,.22-.06.28-.14.06-.08.09-.17.08-.26l-.14-1.98c0-.13-.05-.22-.13-.27-.08-.05-.18-.07-.29-.06l-4.58.32-.16-2.27,5.94-.42c.14-.01.24-.06.31-.16.07-.1.1-.2.09-.3l-.16-2.26c0-.13-.05-.24-.13-.31-.08-.07-.18-.11-.32-.1l-9.09.64c-.13,0-.22.05-.29.14-.07.08-.09.19-.08.31l.89,12.79Zm-16.81,1.17c0,.11.05.2.12.27.07.07.17.1.32.09l2.6-.18c.16-.01.27-.05.32-.12.06-.07.08-.17.07-.31l-.55-7.87c.91,1.29,1.81,2.56,2.7,3.81.88,1.26,1.78,2.53,2.69,3.82.07.09.14.15.21.21s.14.07.22.07l2.92-.2c.13,0,.23-.05.3-.11.07-.06.1-.16.09-.28l-.9-12.84c0-.13-.06-.22-.15-.29-.09-.06-.2-.09-.33-.08l-2.61.18c-.1,0-.18.04-.25.11s-.11.15-.13.27l.51,7.34c-.87-1.2-1.73-2.38-2.58-3.54-.85-1.16-1.7-2.34-2.57-3.54-.07-.1-.16-.17-.25-.2-.1-.04-.18-.05-.27-.05l-3,.21c-.13,0-.23.06-.29.14-.06.08-.09.18-.08.29l.9,12.8Z"/><path class="cls-1" d="m13.93,127.64c-.47.87-.8,2.21-.8,3.72,0,3.29,1.58,4.99,3.72,4.99,1.69-.02,2.8-.94,3.55-3.13.5-1.41.78-1.86,1.32-1.86.59,0,.94.49.94,1.37,0,.99-.38,1.98-.66,2.49l2.47.64c.35-.71.66-1.91.66-3.25,0-2.85-1.62-4.68-3.77-4.68-1.36-.02-2.66.89-3.46,3.27-.45,1.34-.73,1.69-1.32,1.69s-.96-.45-.96-1.53.47-2.42.87-3.08l-2.56-.64Zm15.34-2.47c-2.07-.31-4.35-.92-6.35-1.62l.19,2.17c1.76,1.06,4.07,2.09,6.38,2.82l-.21-3.36Zm-8.85-9.95c.97.09,2.33.71,2.33,2.21,0,1.65-1.46,2.02-2.33,2.02v-4.24Zm-2.45,7.44c.26.05.8.12,1.41.12,2.85,0,5.74-1.41,5.74-5.13,0-4-3.22-5.81-6.14-5.81-3.6,0-5.86,2.24-5.86,6.14,0,1.55.23,2.99.71,4.17l2.42-.47c-.31-.96-.47-1.95-.47-3.18,0-1.67.7-3.13,2.19-3.25v7.41Zm.52-16.61c-.31,0-.57-.02-.82-.09-1.01-.21-1.72-1.04-1.72-2.07,0-1.48,1.22-2.45,3.18-2.45,1.81,0,3.27.85,3.27,2.47,0,1.11-.8,1.88-1.76,2.09-.19.02-.45.05-.64.05h-1.51Zm11.58,0h-6.23v-.05c.8-.52,1.29-1.62,1.29-3.04,0-2.75-2.24-5.18-6.12-5.15-3.58,0-5.91,2.19-5.91,4.92,0,1.48.66,2.87,1.95,3.6v.05l-1.69.17v3.18c.78-.05,2.14-.09,3.43-.09h13.27v-3.58Zm-16.71-21.37v3.58h6.63c.33,0,.68.05.89.14.66.24,1.34.82,1.34,1.81,0,1.29-1.01,1.81-2.49,1.81h-6.38v3.58h6.82c3.39,0,4.94-1.76,4.94-4.12,0-1.91-1.11-3.08-1.84-3.55v-.07l1.58-.16v-3.11c-1.01.05-2.23.09-3.67.09h-7.83Zm11.51-2.87v-3.6h-6.85c-.28,0-.57-.02-.78-.12-.56-.24-1.25-.8-1.25-1.79,0-1.25,1.01-1.79,2.68-1.79h6.19v-3.6h-6.75c-3.55,0-5.01,1.72-5.01,4.05,0,2.07,1.18,3.15,1.88,3.6v.07l-1.62.16v3.11c.96-.05,2.19-.09,3.69-.09h7.81Zm-11.51-14.87h8.87v2.28h2.63v-2.31h.59c1.13,0,2.05.49,2.05,1.67,0,.47-.07.85-.16,1.15l2.75.14c.14-.49.24-1.11.24-1.91,0-1.04-.31-2.28-1.15-3.18-.94-1.04-2.47-1.46-3.86-1.46h-.45v-1.51h-2.63v1.51h-8.87v3.6Zm16.52-8.66c0-1.15-.78-1.91-1.81-1.88-.99-.02-1.79.73-1.79,1.86s.8,1.93,1.79,1.93c1.03-.02,1.81-.75,1.81-1.91m-16.52,1.79h11.51v-3.58h-11.51v3.58Zm.56-14.45c-.47.87-.8,2.21-.8,3.72,0,3.29,1.58,4.99,3.72,4.99,1.69-.02,2.8-.94,3.55-3.13.5-1.41.78-1.86,1.32-1.86.59,0,.94.49.94,1.36,0,.99-.38,1.98-.66,2.49l2.47.64c.35-.71.66-1.91.66-3.25,0-2.85-1.62-4.68-3.77-4.68-1.36-.02-2.66.89-3.46,3.27-.45,1.34-.73,1.69-1.32,1.69s-.96-.45-.96-1.53.47-2.42.87-3.08l-2.56-.64Zm3.62-5.65c-.21,0-.42-.02-.61-.07-.73-.24-1.32-.96-1.32-1.86,0-.8.45-1.41,1.37-1.41,1.39,0,1.83,1.46,1.81,3.34h-1.25Zm-4.19,3.65c.63-.12,1.69-.17,2.8-.17h4c2.71,0,4.97-1.22,4.97-5.06,0-2.1-.57-3.67-1.01-4.47l-2.31.66c.47.75.87,2,.87,3.18,0,1.76-.87,2.09-1.48,2.09h-.16c.02-4.07-1.41-6.75-4.4-6.75-1.84,0-3.53,1.39-3.53,3.72,0,1.36.49,2.54,1.41,3.29v.07l-1.15.21v3.22Zm0-30v3.48h6.71c.28,0,.61.02.89.14.59.21,1.29.75,1.29,1.67,0,1.13-.99,1.65-2.45,1.65h-6.45v3.48h6.73c.28,0,.66.05.92.14.68.24,1.25.82,1.25,1.65,0,1.15-.96,1.69-2.64,1.69h-6.26v3.48h6.78c3.43,0,4.99-1.67,4.99-3.88,0-.85-.19-1.55-.57-2.19-.33-.54-.8-1.06-1.39-1.48v-.05c1.2-.49,1.95-1.67,1.95-3.15,0-1.98-1.08-2.99-1.81-3.48v-.07l1.55-.16v-3.01c-1.01.05-2.23.09-3.67.09h-7.83Z"/><polygon class="cls-4" points="169.46 76.66 110.4 76.66 115.22 68.31 154.99 68.31 135.11 33.87 130.28 25.52 125.46 17.17 125.57 16.98 135 16.98 135.11 17.17 139.93 25.52 164.64 68.31 169.46 76.66"/><polygon class="cls-3" points="154.99 68.31 145.35 68.31 130.28 42.22 125.46 33.87 105.58 68.31 100.76 76.66 95.94 85.01 95.9 85.01 91.09 76.69 91.11 76.66 95.93 68.31 120.64 25.52 125.46 17.17 130.28 25.52 135.11 33.87 154.99 68.31"/><polygon class="cls-1" points="169.47 76.68 164.65 85.01 95.94 85.01 100.76 76.66 105.58 68.31 125.46 33.87 130.28 42.22 115.22 68.31 110.4 76.66 169.46 76.66 169.47 76.68"/></svg>