<?xml version="1.0" encoding="UTF-8"?><svg id="Layer_2" xmlns="http://www.w3.org/2000/svg" viewBox="0 0 112.9 184.37"><defs><style>.cls-1{fill:#fff;}</style></defs><g id="Objects"><g><path class="cls-1" d="m61.01,112.95v21.39c9.88-7.97,20.82-10.66,32.53-10.79,10.17-.11,14.48,4.19,14.4,14.36-.22,28.07-16.49,45.36-44.98,46.37-9.89.35-20.34-.39-29.73-3.25-24.25-7.39-29.68-31.13-27.43-49.09.67-5.34,5.04-8.06,10.51-8.29,12.71-.53,24.6,1.92,35.38,10.39v-21.05C16.36,108.25-2.62,79.41.29,49.82,3.06,21.78,28-.14,57.25,0c28.03.13,52.63,22.53,55.35,49.79,2.97,29.74-16.44,58.75-51.59,63.16Zm41.78-57.03c0-26-20.48-46.46-46.43-46.42-25.85.04-46.35,20.69-46.34,46.67,0,25.32,20.95,46.26,46.31,46.29,25.77.03,46.47-20.7,46.47-46.54Zm-45.55,110.04c-.38-21.3-18.25-36.77-39.65-33.97-1.54.2-3.8,2.74-3.94,4.34-.32,3.69.21,7.52.83,11.23,2.97,17.71,18.59,29.67,38.21,27.72-5.15-4.72-9.36-8.57-14.02-12.83.61-1.88,1.46-4.49,2.7-8.33,5.83,4.35,10.76,8.04,15.87,11.85Zm10.33,9.35c20.04-1.08,34.89-18.96,31.74-39.58-.22-1.44-2.24-3.67-3.48-3.72-12.04-.42-23.27,1.94-31.75,11.43-1.17,1.31-2.32,3.55-2.04,5.1,1.59,8.91,3.62,17.75,5.53,26.77Z"/><path class="cls-1" d="m95.26,55.96c.03,21.21-17.42,38.73-38.69,38.83-21.12.1-38.8-17.41-39-38.65-.2-21.43,17.42-38.99,39.06-38.93,21.37.05,38.59,17.33,38.62,38.75Zm-50.29,11.56v7.83c2.56.21,4.81.39,6.95.57.32,1.94.58,3.48.83,4.98h6.93c.99-2.56,1.19-5.36,2.66-6.44,4.95-3.64,6.93-8.28,5.64-14.05-1.29-5.75-5.51-8.39-11.18-9.43-1.38-.25-2.4-2.4-3.59-3.67,1.45-1.02,2.82-2.73,4.37-2.93,3.49-.44,7.07-.14,10.93-.14v-8.07c-2.57-.18-4.84-.33-7.36-.5-.36-1.48-.71-2.97-1.15-4.8-2.61.13-5.02.24-6.3.3-1.51,2.87-2.08,5.29-3.6,6.58-4.05,3.44-6.36,7.36-4.94,12.69,1.45,5.45,5.23,8.13,10.78,9.13,1.54.28,2.67,2.85,3.98,4.36-1.48,1.19-2.83,3.14-4.46,3.41-3.3.54-6.74.16-10.49.16Z"/></g></g></svg>