<?xml version="1.0" encoding="UTF-8"?><svg id="Layer_2" xmlns="http://www.w3.org/2000/svg" viewBox="0 0 119.86 128.65"><defs><style>.cls-1{fill:#fff;}</style></defs><g id="Objects"><g><path class="cls-1" d="m0,69.32c.39-19.32,7.65-34.79,21.96-46.89,6-5.07,14.32-2.88,16.41,4.33,1.2,4.15.09,7.79-3.32,10.57-6.04,4.92-10.42,11-12.99,18.36-8,22.9,6.3,47.78,30.11,52.4,22.28,4.32,43.68-10.19,47.32-32.57,2.43-14.94-2.35-27.63-13.93-37.53-3.27-2.8-5.07-6.08-4.25-10.33.73-3.81,3.1-6.46,6.9-7.55,3.35-.96,6.49-.37,9.21,1.87,12.19,10.03,19.77,22.76,21.83,38.48,2.7,20.6-3.66,38.16-18.72,52.41-9.05,8.56-19.92,13.67-32.33,15.24-20.13,2.55-37.41-3.48-51.56-17.95C7.54,100.82,2.2,89.5.6,76.51c-.32-2.58-.44-5.18-.6-7.2"/><path class="cls-1" d="m69.94,30.46c0,6.88.05,13.76-.02,20.63-.05,4.84-3.67,9-8.23,9.65-5.17.74-9.58-1.87-11.11-6.66-.32-1-.56-2.08-.56-3.13-.04-13.62-.12-27.24.01-40.86.08-7.93,8.27-12.6,14.95-8.66,3.31,1.96,4.92,4.99,4.94,8.8.04,6.74.01,13.49.01,20.23"/></g></g></svg>