<?xml version="1.0" encoding="UTF-8"?><svg id="Layer_2" xmlns="http://www.w3.org/2000/svg" viewBox="0 0 120.68 111.77"><defs><style>.cls-1{fill:#fff;}</style></defs><g id="Objects"><g><path class="cls-1" d="m113.99,59.57c-.73-20.28-7.39-38.09-22.32-52.33-1.91-1.82-3.37-3.78-1.18-6.11,2.17-2.31,4.13-.61,5.81.97,12.6,11.91,19.99,26.73,23.18,43.54,1.24,6.56.95,13.43,1.19,20.16.08,2.15-.77,4.09-3.44,3.88-2.73-.21-3.36-2.13-3.26-4.54.08-1.86.02-3.72.02-5.58"/><g><path class="cls-1" d="m35.88,75.13c-2.67-6.83-5.68-14.18-8.31-21.67-.33-.95.92-3.04,2.01-3.83,10.89-7.89,20.25-17.21,27.28-28.72.95-1.56.73-3.92,1.83-5.29,1.35-1.68,3.38-3.04,5.4-3.83.77-.3,2.96,1.1,3.39,2.16,8.17,20.6,16.2,41.25,24.12,61.94.4,1.04-.03,3.34-.75,3.7-1.9.94-5.15,2.28-6.13,1.44-5.71-4.89-12.78-5.12-19.41-5.69-9.46-.81-19.04-.21-29.42-.21"/><path class="cls-1" d="m22.24,84.22c-4.39,0-8.16.62-11.63-.14-6.06-1.34-10.13-6.85-10.58-12.98-.42-5.74,3-11.64,8.46-14.19,2.87-1.34,5.92-2.3,8.86-3.5,3.07-1.25,5.1-.11,6.52,2.64.12.24.23.48.3.73,5.05,15.94,13.62,30.13,22.1,44.36,2.76,4.62,2.4,5.53-2.62,7.52-11.35,4.48-9.75,5.42-14.27-6.2-2.44-6.28-4.92-12.55-7.16-18.25"/><path class="cls-1" d="m106.94,57.36c-.15,2.16-.19,3.89-.42,5.59-.29,2.11-1.17,4.39-3.64,3.49-1.35-.49-2.99-2.95-2.84-4.34.99-9.02-.63-17.67-4.59-25.53-3.17-6.29-7.79-11.89-12.03-17.6-1.42-1.92-3.24-3.54-1.32-5.82,2.09-2.48,4.04-.81,5.73.82,12.39,11.97,17.99,26.89,19.1,43.37"/></g></g></g></svg>