<?xml version="1.0" encoding="UTF-8"?><svg id="Layer_2" xmlns="http://www.w3.org/2000/svg" viewBox="0 0 166.31 169.65"><defs><style>.cls-1{fill:#fff;}</style></defs><g id="Objects"><g><path class="cls-1" d="m57.16,68.77c0-6.36,0-12.72,0-19.07,0-3.72,1.32-5.39,4.92-6.29,4.52-1.13,9.04-2.22,13.55-3.38,4.98-1.27,9.95-1.3,14.94-.03,4.63,1.18,9.28,2.31,13.91,3.48,3.35.85,4.68,2.56,4.68,6.08,0,11.27-.25,22.54.06,33.8.18,6.54-1.15,12.59-4.39,18.08-4.32,7.32-5.8,15.23-6.62,23.52-1.35,13.71-3.14,27.38-4.77,41.07-.32,2.74-1.32,3.58-4.08,3.59-4.15.02-8.31.02-12.46,0-2.67-.01-3.71-.87-4.01-3.46-2-16.94-4.04-33.87-5.93-50.82-.4-3.57-1.96-6.59-3.46-9.7-2.35-4.87-5.12-9.58-5.96-15.01-.34-2.22-.35-4.51-.38-6.77-.05-5.04-.02-10.07-.02-15.11Z"/><path class="cls-1" d="m112.51,69.42c0-6.11.05-12.22-.04-18.32-.02-1.46.51-1.92,1.82-2.24,3.88-.92,7.72-1,11.59-.01,3.84.98,7.7,1.89,11.55,2.85,2.51.63,3.58,1.98,3.59,4.59.02,10.33.26,20.66-.13,30.98-.13,3.45-1.31,7.14-2.99,10.19-3.38,6.17-4.99,12.62-5.64,19.55-1.03,10.96-2.49,21.89-3.76,32.83-.29,2.47-1.05,3.17-3.53,3.17-3.21,0-6.42,0-9.63-.02-2.42-.02-3.18-.7-3.45-3.02-1.61-13.69-3.1-27.4-4.93-41.06-.4-2.94.04-5.27,1.4-7.77,3.04-5.57,4.56-11.5,4.19-17.94-.26-4.58-.05-9.19-.05-13.79h.02Z"/><path class="cls-1" d="m53.83,69.63c0,4.34.21,8.7-.05,13.03-.41,6.9,1.27,13.22,4.52,19.2,1.05,1.94,1.48,3.75,1.16,6.14-1.86,13.91-3.38,27.87-5.01,41.81-.29,2.48-1.01,3.15-3.51,3.17-3.21.03-6.42.03-9.63.02-2.45,0-3.2-.72-3.5-3.21-1.61-13.69-3.15-27.39-4.89-41.06-.28-2.18-1.35-4.28-2.21-6.35-1.53-3.71-3.29-7.33-4.73-11.08-.55-1.42-.66-3.08-.67-4.64-.06-9.95-.03-19.9-.02-29.85,0-3.33.93-4.46,4.18-5.26,3.67-.9,7.34-1.79,10.99-2.73,3.93-1.01,7.84-.89,11.77.07,1.2.29,1.62.77,1.6,2.02-.06,6.23-.03,12.47-.03,18.7h.01Z"/><path class="cls-1" d="m21.93,73.71c0,3.46.15,6.93-.04,10.38-.26,4.88.94,9.37,3.19,13.6.9,1.69,1.12,3.19.82,5.13-.88,5.72-1.41,11.49-2.08,17.24-.54,4.62-1.06,9.25-1.61,13.87-.27,2.27-.76,2.68-3,2.69-2.27,0-4.54-.09-6.8.02-1.96.1-2.72-.83-2.92-2.62-.72-6.38-1.48-12.75-2.22-19.12-.43-3.75-.78-7.51-1.32-11.25-.22-1.53-.78-3.03-1.36-4.47-.58-1.46-1.38-2.83-2.08-4.23C.89,91.7-.08,88.35,0,84.63c.15-6.92.04-13.84.04-20.77,0-2.66.63-3.48,3.17-4.12,2.93-.74,5.83-1.75,8.8-2.09,2.82-.33,5.72.02,8.58.12,1.11.04,1.37.73,1.36,1.79-.05,4.72-.02,9.44-.02,14.16Z"/><path class="cls-1" d="m144.4,58.2c3.21-1.12,6.32-1.4,9.46-.72,3.26.71,6.47,1.59,9.71,2.37,1.89.45,2.71,1.66,2.71,3.54,0,7.87.1,15.73-.07,23.6-.04,2.01-.54,4.26-1.57,5.94-4.11,6.7-4.82,14.17-5.57,21.69-.66,6.51-1.5,13-2.24,19.5-.19,1.69-.92,2.62-2.8,2.54-2.26-.1-4.53-.01-6.8-.02-2.39,0-2.84-.39-3.12-2.77-1.05-8.93-2.07-17.87-3.13-26.81-.24-1.99-.63-3.97-.86-5.96-.06-.57.08-1.25.36-1.75,3.02-5.42,4.22-11.16,4-17.4-.28-7.85-.07-15.72-.07-23.74Z"/><path class="cls-1" d="m83.12,35.48c-9.84-.03-17.75-7.99-17.7-17.82C65.46,7.93,73.38.04,83.12,0c9.8-.04,17.79,7.93,17.8,17.75,0,9.81-7.97,17.75-17.8,17.72Z"/><path class="cls-1" d="m60.17,31.41c-.1,7.79-6.39,13.87-14.25,13.8-7.75-.08-13.9-6.42-13.81-14.25.09-7.76,6.44-13.91,14.26-13.8,7.78.1,13.9,6.43,13.8,14.26Z"/><path class="cls-1" d="m106.16,31.13c0-7.79,6.26-14,14.08-13.98,7.78.01,14.01,6.28,13.98,14.08-.02,7.79-6.28,14-14.08,13.97-7.81-.02-13.98-6.24-13.97-14.07Z"/><path class="cls-1" d="m19.24,34.02c5.61-.02,10.25,4.58,10.27,10.18.02,5.74-4.58,10.37-10.28,10.37-5.65,0-10.19-4.53-10.23-10.2-.04-5.78,4.46-10.33,10.25-10.35Z"/><path class="cls-1" d="m160.72,44.21c.04,5.75-4.54,10.37-10.26,10.36-5.63,0-10.21-4.57-10.25-10.2-.04-5.75,4.52-10.33,10.27-10.33,5.67,0,10.2,4.5,10.24,10.17Z"/></g></g></svg>