<svg version="1.2" xmlns="http://www.w3.org/2000/svg" viewBox="0 0 79 79" width="79" height="79">
	<title>Asset 1 (1)-svg</title>
	<style>
		.s0 { fill: #ffffff } 
		.s1 { fill: #b5be5a } 
		.s2 { fill: none;stroke: #00265d;stroke-linecap: round;stroke-linejoin: round;stroke-width: .8 } 
		.s3 { fill: none;stroke: #b5be5a;stroke-linecap: round;stroke-linejoin: round;stroke-width: .8 } 
		.s4 { fill: #00265d } 
	</style>
	<g id="Ebene_1">
		<path id="Layer" class="s0" d="m39.3 77.5c-21.2 0-38.3-17.1-38.3-38.3 0-21.1 17.1-38.2 38.3-38.2 21.1 0 38.2 17.1 38.2 38.3 0 21.1-17.1 38.2-38.3 38.2z"/>
		<path id="Layer" fill-rule="evenodd" class="s1" d="m39.3 78.5c-21.7 0-39.3-17.6-39.3-39.3 0-21.6 17.6-39.2 39.3-39.2 21.6 0 39.2 17.6 39.2 39.3 0 21.6-17.6 39.2-39.3 39.2zm0-76.5c-20.5 0-37.2 16.7-37.2 37.2 0 20.6 16.7 37.3 37.3 37.3 20.5 0 37.2-16.7 37.2-37.3 0-20.5-16.7-37.2-37.3-37.2z"/>
		<path id="Layer" class="s2" d="m23.9 14.5h31.1c0.2 0 0.5 0.2 0.5 0.5v20.4c0 0.2-0.3 0.4-0.5 0.4h-31.1c-0.3 0-0.5-0.2-0.5-0.4v-20.4c0-0.3 0.2-0.5 0.5-0.5z"/>
		<path id="Layer" class="s2" d="m45.1 33.8h7.2v2h-7.2z"/>
		<path id="Layer" class="s2" d="m48.1 38.6h-17.3"/>
		<path id="Layer" class="s2" d="m28.6 38.6h2.2"/>
		<path id="Layer" class="s2" d="m50.3 38.6h-2.2"/>
		<path id="Layer" class="s2" d="m50.3 38.6h6.1c0.3 0 0.5-0.2 0.5-0.5v-1.8c0-0.2-0.2-0.5-0.5-0.5h-34c-0.3 0-0.5 0.3-0.5 0.5v1.8c0 0.3 0.2 0.5 0.5 0.5h6.2"/>
		<path id="Layer" class="s2" d="m28 38.6l-3 9.7c-0.2 0.6 0.1 1.1 0.6 1.3h0.1c0.6 0.1 1.1-0.1 1.3-0.7l3.2-10.3"/>
		<path id="Layer" class="s2" d="m50.6 38.6l3.1 9.7c0.1 0.6-0.2 1.1-0.7 1.3h-0.1c-0.5 0.1-1.1-0.1-1.2-0.7l-3.3-10.3"/>
		<g id="Layer">
			<path id="Layer" fill-rule="evenodd" class="s3" d="m37.5 28c-5 3.6-5.5-2.2-7.7-3.2 1.7-1.7 9.2-2.2 7.7 3.2z"/>
			<path id="Layer" fill-rule="evenodd" class="s3" d="m40.3 26.5c7.8 0 3.5-6.2 5.1-9.1-3-0.4-10.7 4.9-5.1 9.1z"/>
			<path id="Layer" class="s3" d="m39.6 33.4c-0.6-3.7 0.1-7.6 2-10.6"/>
			<path id="Layer" class="s3" d="m35.2 26.5c1.1 0.4 2.4 1.5 4 4.1"/>
		</g>
		<path id="Layer" class="s2" d="m29 42.5h20.7"/>
		<g id="Layer">
			<path id="Layer" class="s4" d="m23.9 58.4v-3.1h-1.2v-0.8h3.2v0.8h-1.2v3.1h-0.8z"/>
			<path id="Layer" class="s4" d="m26.4 56.8v-2.3h0.9v2.2q0 1 0.8 1 0.9 0 0.9-1v-2.2h0.8v2.3c0 1.1-0.6 1.7-1.7 1.7-1.1 0-1.7-0.6-1.7-1.7z"/>
			<path id="Layer" class="s4" d="m30.6 58.4v-3.9h0.9v3.9z"/>
			<path id="Layer" class="s4" d="m33.5 57.1q0-0.2 0.1-0.5l0.8 0.1q-0.1 0.2-0.1 0.4c0 0.4 0.2 0.6 0.6 0.6 0.4 0 0.6-0.3 0.6-0.8v-2.4h0.8v2.6c0 0.8-0.5 1.4-1.4 1.4-0.9 0-1.4-0.6-1.4-1.4z"/>
			<path id="Layer" class="s4" d="m37.1 56.8v-2.3h0.8v2.2q0.1 1 0.9 1 0.8 0 0.8-1v-2.2h0.9v2.3c0 1.1-0.6 1.7-1.7 1.7-1.1 0-1.7-0.6-1.7-1.7z"/>
			<path id="Layer" class="s4" d="m41.3 58.4v-3.9h0.9l1.7 2.6v-2.6h0.8v3.9h-0.8l-1.8-2.6v2.6h-0.8z"/>
			<path id="Layer" class="s4" d="m45.6 58.4v-3.9h0.8v3.9z"/>
			<path id="Layer" fill-rule="evenodd" class="s4" d="m47.2 56.4c0-1.1 0.8-2 2-2 1.1 0 2 0.9 2 2 0 1.2-0.9 2.1-2 2.1-1.2 0-2-0.9-2-2.1zm3.1 0c0-0.7-0.5-1.2-1.2-1.2-0.6 0-1.1 0.5-1.1 1.2 0 0.8 0.5 1.3 1.1 1.3 0.7 0 1.2-0.5 1.2-1.3z"/>
			<path id="Layer" fill-rule="evenodd" class="s4" d="m55.1 58.4q-0.1 0-0.2 0c-0.7 0-1.1-0.2-1.6-1.2l-0.1-0.3h-0.5v1.5h-0.8v-3.9h1.7c0.8 0 1.4 0.4 1.4 1.2 0 0.6-0.3 1-0.9 1.1 0.3 0.7 0.6 0.8 0.9 0.8q0.1 0 0.1 0zm-2.4-3.2v1h0.8q0.6 0 0.6-0.5 0-0.5-0.6-0.5z"/>
			<path id="Layer" fill-rule="evenodd" class="s4" d="m28.3 64.6l-0.4-1h-1.4l-0.3 1h-0.9l1.4-3.9h1.1l1.4 3.9zm-1.6-1.6h1l-0.5-1.5z"/>
			<path id="Layer" class="s4" d="m29.5 62.6c0-1.1 0.8-2 1.9-2 1 0 1.6 0.6 1.8 1.5l-0.8 0.3q-0.3-1.1-1-1c-0.6 0-1.1 0.5-1.1 1.2 0 0.8 0.5 1.3 1.1 1.3 0.5 0 0.8-0.3 1-0.8l0.8 0.1q-0.4 1.5-1.8 1.5c-1.2 0-2-0.9-2-2.1z"/>
			<path id="Layer" fill-rule="evenodd" class="s4" d="m36.5 64.6l-0.3-1h-1.5l-0.3 1h-0.9l1.4-3.9h1.1l1.4 3.9zm-1.6-1.6h1l-0.5-1.5z"/>
			<path id="Layer" fill-rule="evenodd" class="s4" d="m37.9 64.6v-3.9h1.5c1.1 0 2 0.7 2 1.9 0 1.3-0.9 2-2 2zm0.9-0.8h0.6c0.6 0 1.2-0.3 1.2-1.2 0-0.8-0.6-1.1-1.2-1.1h-0.6z"/>
			<path id="Layer" class="s4" d="m42.2 64.6v-3.9h2.8v0.7h-2v0.9h1.6v0.7h-1.6v0.9h2v0.7c0 0-2.8 0-2.8 0z"/>
			<path id="Layer" class="s4" d="m45.7 64.6v-3.9h1.2l1 2.2 0.9-2.2h1.2v3.9h-0.8v-2.9l-1 2.1h-0.7l-0.9-2.1v2.9z"/>
			<path id="Layer" class="s4" d="m51.9 64.6v-1.5l-1.4-2.4h0.9l0.9 1.6 0.9-1.6h1l-1.5 2.4v1.5z"/>
		</g>
	</g>
</svg>