<?xml version="1.0" encoding="UTF-8"?>
<svg id="Layer_1" data-name="Layer 1" xmlns="http://www.w3.org/2000/svg" version="1.1" viewBox="0 0 85 85">
  <defs>
    <style>
      .cls-1 {
        fill: #dc3826;
      }

      .cls-1, .cls-2 {
        stroke-width: 0px;
      }

      .cls-2 {
        fill: #ffcd08;
      }
    </style>
  </defs>
  <path class="cls-2" d="M17.1,30.6c2-.1,4.1-.2,6.2-.4v21.5h-6.2v-21.1Z"/>
  <path class="cls-2" d="M26,50v-17.9c.1,0,.3-.1.4-.1,1.5.2,2.7-.3,3.9-1.4,1.7-1.6,3.9-1.9,6.4-1.3-.3.3-.5.6-.7.8-1.6,1.5-3.3,3-4.8,4.5-1.7,1.7-1.7,3.2,0,4.8,3.4,3.4,8.2,3.8,12.2,1,.9-.7,1.8-1.4,3-2.2.5.6,1,1.2,1.5,1.7,2.4,2.5,4.8,5,7.1,7.4,1.2,1.2,1.2,2.8.1,3.9-1.1,1.1-2.7,1-3.9-.2-.2-.2-.4-.4-.8-.8.1,1.6-.1,2.9-1.6,3.5-1.6.7-2.8-.2-3.9-1.4-.1,1.5-.4,2.6-1.8,3.1-2.4.8-3.2-1.5-4.7-2.7,0,.4,0,.6,0,.8,0,1.1-.6,2-1.6,2.3-1.1.4-2.1.2-2.9-.7-1.1-1.3-2.3-2.5-3.4-3.8-.9-1.1-1.8-1.8-3.3-1.5-.3,0-.6,0-1,0Z"/>
  <path class="cls-1" d="M59,32.5v15.9c-4.3-4.6-8.5-9-12.7-13.5-1.6,1.1-3.1,2.3-4.7,3.4-1.6,1.2-3.4,1.9-5.4,1.6-1-.2-2-.6-2.8-1.2-1.4-1-1.3-2.2,0-3.3,2.1-1.9,4.1-3.8,6.2-5.6,2.7-2.4,6.7-2.4,9,.4,1.6,2.1,3.4,2.7,5.9,2.4,1.4-.2,2.9,0,4.5,0Z"/>
  <path class="cls-1" d="M67.5,51.7h-6v-21.3h6v21.3Z"/>
</svg>