<?xml version="1.0" encoding="UTF-8"?>
<svg id="Layer_1" data-name="Layer 1" xmlns="http://www.w3.org/2000/svg" version="1.1" viewBox="0 0 85 85">
  <defs>
    <style>
      .cls-1 {
        fill: #dc3826;
      }

      .cls-1, .cls-2 {
        stroke-width: 0px;
      }

      .cls-2 {
        fill: #ffcd08;
      }
    </style>
  </defs>
  <g>
    <path class="cls-1" d="M49.1,26c0,.8-.1,1.6,0,2.3-.2,0-.4,0-.5,0-5.7,0-11.5,0-17.2,0-.2,0-.4,0-.6,0,.1-.8.4-1.5.4-2.3.2,0,.5,0,.7,0,5.5,0,11,0,16.5,0,.3,0,.5,0,.7,0Z"/>
    <path class="cls-1" d="M38.1,59.6c-.3.7-.4,1.5-.6,2.3-1.5-1-3.1-2-4.6-3-3.4-2.3-6.9-4.6-10.3-6.9-.1,0-.2-.1-.4-.2.8-.4,1.5-.8,2.3-1.2.1,0,.2.2.3.3,3.1,2.1,6.1,4.2,9.2,6.2,1.3.9,2.6,1.8,4,2.6Z"/>
    <path class="cls-1" d="M46.1,59.8c-.5-.6-1-1.2-1.5-1.7.5-.4.9-.7,1.4-1.1,1.7-1.4,3.3-2.7,4.9-4.1.9-.8,1.9-1.4,2.6-2.3.8.4,1.5.8,2.3,1.2-.9.4-1.5,1.1-2.2,1.7-2.2,1.8-4.4,3.6-6.5,5.4-.4.3-.7.6-1,.9Z"/>
    <path class="cls-1" d="M58.3,43.1c-.6-.1-1.2-.1-1.8-.2-.1-.3,0-.5-.1-.8-.6-3.5-1.1-7-1.7-10.6.6-.1,1.2-.4,1.7-.8.4,1.6.6,3.3.8,4.9.3,2.2.7,4.4,1,6.6,0,.3,0,.5,0,.8Z"/>
    <path class="cls-1" d="M22.6,43.1c-.8,0-1.5,0-2.3,0,.8-2.3,1.5-4.7,2.3-7,.6-2,1.2-3.9,1.8-5.9.7.2,1.4.5,2.1.7-.4,1.3-.8,2.5-1.2,3.8-.9,2.8-1.8,5.6-2.7,8.4Z"/>
    <path class="cls-1" d="M32.6,41.3c-1.6-3.5-3.2-7-4.7-10.5.6-.3,1.3-.7,1.9-1,1.2,2.6,2.4,5.2,3.5,7.8.4,1,.9,2,1.4,2.9-.8,0-1.3.6-2.1.7Z"/>
    <path class="cls-1" d="M31.2,46.8c-1.8.3-3.6.5-5.4.8-.1-.7-.3-1.5-.4-2.2,1.8-.2,3.7-.4,5.5-.8.1.7.2,1.5.3,2.2Z"/>
    <path class="cls-1" d="M52.2,31.5c-1.3,1.3-2.8,2.4-4.2,3.6-1.8,1.5-3.6,3-5.4,4.5-1.2,1-2.3,2.1-3.6,2.9-.5-.5-1.1-1-1.6-1.5,1.8-1.3,3.4-2.8,5.1-4.2,2.3-1.9,4.6-3.8,6.9-5.7.3-.2.6-.5.8-.8.7.4,1.3.9,2.1,1.2Z"/>
    <path class="cls-1" d="M52.4,47.6c-.6-.3-1.3-.2-2-.3-2.5-.2-5-.5-7.4-.6-1.2,0-2.3-.2-3.5-.4,0-.7.2-1.5.1-2.2,1.2.1,2.4.3,3.6.4,2.2.2,4.4.4,6.6.6,1,0,2,.2,3,.3-.1.7-.3,1.5-.4,2.2Z"/>
    <path class="cls-1" d="M38.3,48.2c0,.2,0,.4.1.7,1.2,2.6,2.4,5.3,3.6,7.9,0,.2.1.3.2.5-.7.1-1.4.3-2.2.4-1.1-2.5-2.2-5-3.4-7.5-.1-.3-.3-.6-.3-1,.7-.4,1.3-.7,2-1.1Z"/>
  </g>
  <g>
    <path class="cls-2" d="M24.4,30.2c-2-1.1-2.6-4-1.5-6,.6-1.1,1.7-1.6,2.8-2.1h2.2c.9.4,1.8.8,2.4,1.6.6.7.9,1.5.9,2.4,0,.8-.3,1.5-.4,2.3-.2.6-.7,1-1,1.5-.6.3-1.3.7-1.9,1-.5,0-.9.2-1.4.1-.7-.2-1.4-.5-2.1-.7Z"/>
    <path class="cls-2" d="M16.9,46.4c.4-1.1,1-2.1,2-2.8.4-.3.9-.4,1.3-.5.8,0,1.5,0,2.3,0,1.3.4,2.2,1.1,2.8,2.4.1.7.3,1.5.4,2.2,0,1.1-.5,2-1.2,2.9-.8.4-1.5.8-2.3,1.2-2.8.4-4.5-.9-5.4-3.3v-2.1Z"/>
    <path class="cls-2" d="M49.1,26c.6-2.3,2.8-3.4,4.7-3.2,2.4.3,4,2.1,4.1,4.3,0,1.5-.7,2.6-1.5,3.6-.5.4-1,.7-1.7.8-.8.1-1.7.2-2.5,0-.8-.3-1.4-.8-2.1-1.2-.5-.6-1-1.2-1-2-.1-.8,0-1.6,0-2.3Z"/>
    <path class="cls-2" d="M58.3,43.1c1.1.6,2.1,1.3,2.6,2.5,1,2.5-.3,5.8-3.5,6.2-.6,0-1.1,0-1.6,0-.8-.4-1.5-.8-2.3-1.2-.7-.8-1.2-1.8-1.2-2.9l.4-2.2c.7-1.6,2-2.3,3.7-2.5.6,0,1.2,0,1.8.2Z"/>
    <path class="cls-2" d="M46.1,59.8c1.2,2.8-.2,5.6-3.1,6.3-2.9.6-5.4-1.5-5.4-4.2.1-.8.2-1.6.6-2.3.4-.8,1.1-1.4,1.9-1.8.7-.1,1.4-.3,2.2-.4.9,0,1.7.3,2.5.8.5.6,1,1.2,1.5,1.7Z"/>
    <path class="cls-2" d="M38.3,48.2c-.7.4-1.3.7-2,1.1-2.2.4-4.1-.5-5.1-2.5-.1-.7-.2-1.5-.3-2.2,0-1.4.7-2.5,1.8-3.4.7-.1,1.3-.7,2.1-.7.9,0,1.9,0,2.7.5.5.5,1.1,1,1.6,1.5.2.6.6,1,.6,1.7,0,.7,0,1.5-.1,2.2-.3.7-.6,1.4-1.2,1.8Z"/>
  </g>
</svg>