<?xml version="1.0" encoding="UTF-8"?>
<svg id="Layer_1" data-name="Layer 1" xmlns="http://www.w3.org/2000/svg" version="1.1" viewBox="0 0 85 85">
  <defs>
    <style>
      .cls-1 {
        fill: #dc3826;
      }

      .cls-1, .cls-2 {
        stroke-width: 0px;
      }

      .cls-2 {
        fill: #ffcd08;
      }
    </style>
  </defs>
  <path class="cls-2" d="M41.5,47.4c2.2,0,4.3,0,6.5,0,2.1,0,3.4,1.3,3.4,3.4,0,.9,0,1.8,0,2.7,0,2.7-1.3,4.5-3.7,5.6-2.3,1-4.8,1.1-7.2,1-1.9,0-3.8-.4-5.5-1.2-1.7-.9-2.9-2.2-3.3-4.2,0-.3,0-.7,0-1,0-.9,0-1.9,0-2.8,0-1.8,1.3-3.4,3.4-3.4,2.2,0,4.4,0,6.6,0h0Z"/>
  <path class="cls-1" d="M49.2,36.5c1.3,0,2.6,0,3.9,0,2.2,0,4.5,0,6.7,0,1.7,0,2.9.9,3.3,2.4,0,.3,0,.5,0,.8,0,.9,0,1.9,0,2.8,0,2.7-1.2,4.5-3.6,5.6-2,.9-4.1,1.1-6.3,1.1-.1,0-.3-.2-.4-.3-.7-1.7-1.9-2.8-3.6-3.1-.7-.1-1.4-.1-2.1-.1-.2,0-.3,0-.6,0,2.7-2.5,3.5-5.5,2.5-9Z"/>
  <path class="cls-1" d="M36.2,45.6c-.7,0-1.4,0-2.1.1-2,.2-3.3,1.3-4.1,3.1-.2.4-.3.5-.7.5-2.2,0-4.3-.3-6.3-1.3-1.7-.9-2.8-2.2-3.2-4.1,0-.3,0-.7,0-1,0-1,0-2,0-2.9,0-2,1.3-3.3,3.3-3.4,3.5,0,6.9,0,10.4,0,.1,0,.2,0,.4,0-1,3.5-.2,6.5,2.5,9Z"/>
  <path class="cls-2" d="M41.5,45.6c-3.5,0-6.3-2.8-6.3-6.3,0-3.5,2.9-6.3,6.4-6.3,3.5,0,6.3,2.9,6.3,6.4,0,3.5-2.9,6.3-6.3,6.3Z"/>
  <path class="cls-1" d="M53.3,34.7c-3.4,0-6.3-2.7-6.4-6.3-.1-3.4,2.7-6.3,6.2-6.4,3.4,0,6.3,2.7,6.4,6.2.1,3.5-2.7,6.4-6.3,6.5Z"/>
  <path class="cls-1" d="M36,28.4c0,3.5-2.8,6.3-6.3,6.3-3.5,0-6.4-2.8-6.4-6.3,0-3.5,2.8-6.3,6.3-6.3,3.5,0,6.4,2.8,6.4,6.3Z"/>
</svg>